<?xml version="1.0" standalone="no"?>
<!DOCTYPE svg PUBLIC "-//W3C//DTD SVG 20010904//EN"
 "http://www.w3.org/TR/2001/REC-SVG-20010904/DTD/svg10.dtd">
<svg version="1.0" xmlns="http://www.w3.org/2000/svg"
 width="3125.000000pt" height="3125.000000pt" viewBox="0 0 3125.000000 3125.000000"
 preserveAspectRatio="xMidYMid meet">

<g transform="translate(0.000000,3125.000000) scale(0.100000,-0.100000)"
fill="#000000" stroke="none">
<path d="M21413 27908 c-13 -6 -23 -20 -23 -30 0 -24 -60 -81 -125 -118 -28
-16 -81 -55 -119 -87 -38 -32 -87 -72 -110 -89 -106 -81 -314 -305 -355 -383
-6 -11 -21 -31 -34 -44 -12 -13 -47 -54 -77 -91 -30 -37 -74 -86 -97 -108 -24
-23 -43 -47 -43 -54 0 -27 -86 -159 -137 -212 -29 -30 -53 -59 -53 -65 0 -5
-20 -34 -45 -63 -25 -28 -45 -61 -45 -72 0 -11 -7 -25 -15 -32 -9 -7 -13 -21
-10 -31 3 -9 1 -20 -5 -24 -7 -4 -20 -28 -31 -52 -11 -25 -31 -59 -44 -75 -14
-16 -25 -36 -25 -43 0 -7 -16 -32 -35 -55 -19 -23 -35 -49 -35 -57 0 -8 -22
-52 -49 -97 -27 -44 -77 -137 -110 -206 -34 -69 -71 -143 -83 -165 -77 -146
-98 -186 -127 -234 -18 -30 -50 -89 -71 -130 -21 -42 -67 -123 -102 -181 -72
-119 -114 -198 -133 -250 -7 -19 -40 -91 -72 -160 -73 -154 -88 -190 -108
-263 -15 -51 -49 -146 -75 -202 -87 -196 -149 -379 -150 -443 0 -42 -26 -134
-53 -187 -46 -93 -181 -255 -211 -255 -7 0 -19 -7 -27 -16 -18 -22 -68 -46
-112 -54 l-38 -8 7 32 c3 17 11 36 16 43 8 10 42 94 55 135 3 11 -3 25 -15 35
-19 17 -20 24 -11 113 5 52 15 165 23 250 9 103 22 184 40 243 14 49 30 115
35 146 5 32 16 75 25 95 9 21 20 76 26 123 15 118 37 207 64 262 13 25 27 62
31 81 4 19 17 62 29 95 13 33 27 74 33 90 23 62 81 186 105 223 14 20 38 60
53 87 16 28 41 68 57 89 15 21 28 44 28 49 0 6 11 25 24 42 14 18 44 70 66
116 23 46 46 92 51 102 6 10 23 54 39 97 23 64 26 79 15 84 -8 3 -17 1 -20 -4
-4 -6 -22 -10 -41 -10 -24 0 -34 -4 -34 -16 0 -9 -9 -27 -20 -41 -11 -14 -20
-32 -20 -39 0 -7 -8 -15 -19 -19 -10 -3 -40 -33 -67 -66 -53 -66 -87 -89 -133
-89 -16 0 -33 -5 -36 -11 -4 -6 -13 -8 -21 -5 -7 3 -26 -6 -41 -19 -26 -23
-27 -26 -10 -39 25 -19 22 -63 -5 -77 -29 -15 -38 -28 -38 -57 0 -15 -9 -26
-25 -32 -14 -5 -25 -15 -25 -22 0 -7 -9 -19 -20 -26 -11 -7 -20 -23 -20 -36 0
-12 -9 -49 -20 -81 -27 -79 -25 -97 10 -124 25 -18 28 -25 20 -41 -5 -10 -10
-39 -10 -65 0 -95 -87 -194 -106 -120 -9 38 -36 48 -85 34 -31 -10 -45 -21
-59 -49 -10 -20 -26 -43 -35 -50 -9 -8 -41 -51 -70 -95 -39 -60 -62 -85 -86
-95 -19 -7 -62 -40 -96 -74 -51 -49 -63 -67 -63 -91 0 -31 -42 -106 -78 -138
-10 -9 -49 -22 -88 -28 l-70 -12 -54 35 c-30 20 -71 52 -89 72 -19 20 -40 36
-47 36 -23 0 -38 32 -35 77 2 36 -1 48 -18 60 -22 15 -27 42 -12 71 4 9 29 60
55 112 26 52 61 114 79 137 29 38 183 214 208 238 6 6 38 37 71 70 52 53 57
60 38 63 -32 5 -108 -34 -152 -78 -31 -32 -38 -46 -38 -78 0 -33 -6 -43 -39
-70 -22 -18 -45 -32 -51 -32 -6 0 -29 -18 -50 -40 -21 -22 -45 -40 -53 -40 -8
0 -25 -12 -38 -26 -13 -15 -35 -36 -47 -48 -13 -11 -44 -40 -69 -63 -25 -24
-49 -43 -54 -43 -5 0 -9 -7 -9 -15 0 -8 -12 -25 -27 -38 -14 -12 -37 -32 -51
-45 -14 -12 -48 -29 -76 -37 -27 -8 -64 -28 -81 -44 -56 -54 -106 -81 -147
-81 -65 0 -147 29 -189 67 -36 33 -40 34 -74 23 -20 -7 -43 -9 -51 -6 -8 3
-31 -3 -51 -14 -40 -21 -64 -19 -125 11 -21 11 -57 19 -80 19 -24 0 -106 13
-183 29 -125 25 -154 28 -273 23 -73 -2 -135 -9 -138 -13 -3 -5 -21 -9 -40 -9
-63 0 -184 -30 -221 -55 -52 -36 -93 -32 -180 15 l-74 41 -222 -6 c-122 -3
-251 -10 -287 -15 -36 -5 -94 -14 -130 -20 -96 -14 -150 -27 -193 -45 -27 -11
-52 -14 -87 -9 -35 5 -55 3 -66 -7 -11 -9 -58 -15 -138 -19 -113 -5 -126 -8
-196 -42 -71 -34 -79 -35 -150 -31 -48 4 -91 14 -120 28 -25 12 -60 25 -79 29
-18 3 -63 28 -100 54 -36 26 -83 57 -103 67 -45 23 -103 64 -250 176 -277 211
-615 412 -1053 625 -161 78 -487 251 -545 288 -19 12 -82 51 -140 85 -58 34
-152 95 -210 136 -231 163 -326 232 -376 275 -29 25 -73 63 -99 85 -89 77
-241 195 -324 252 -46 32 -104 76 -130 99 -51 45 -225 160 -292 194 -64 33
-299 191 -413 278 -30 23 -59 42 -63 42 -4 0 -40 28 -79 63 -80 70 -84 73
-174 142 -36 28 -67 53 -70 56 -3 3 -34 27 -70 53 -36 27 -67 51 -70 55 -6 9
-95 63 -170 104 -88 48 -93 51 -140 82 -25 16 -56 39 -70 51 -27 23 -140 63
-257 89 -59 13 -75 14 -92 3 -29 -18 -26 -25 14 -31 19 -3 81 -27 137 -52 57
-26 129 -59 161 -73 52 -23 100 -63 242 -201 43 -41 179 -151 227 -183 23 -15
51 -37 63 -48 12 -11 26 -20 32 -20 5 0 30 -17 54 -38 24 -20 71 -55 104 -77
33 -22 81 -60 107 -85 44 -42 63 -57 150 -118 18 -12 71 -51 118 -85 47 -34
97 -70 111 -79 14 -9 64 -49 110 -88 119 -101 136 -116 235 -204 142 -128 147
-132 191 -172 23 -22 60 -55 83 -74 23 -19 56 -48 73 -63 18 -16 64 -53 102
-82 86 -65 238 -223 260 -269 17 -35 38 -61 131 -161 75 -81 95 -103 133 -150
18 -22 69 -78 114 -125 231 -240 354 -388 458 -552 16 -25 48 -65 69 -87 22
-23 40 -45 40 -51 0 -5 9 -14 19 -20 11 -5 35 -36 55 -67 19 -32 56 -80 81
-108 48 -52 111 -140 138 -191 8 -16 34 -52 56 -79 23 -27 41 -55 41 -62 0 -6
10 -24 23 -40 13 -15 35 -48 49 -73 92 -164 154 -268 169 -285 21 -23 73 -114
95 -165 8 -19 21 -46 30 -60 8 -14 35 -68 60 -120 24 -52 55 -115 68 -140 71
-133 146 -286 146 -296 0 -23 84 -82 125 -89 22 -4 47 -9 55 -11 33 -8 42 11
24 48 -38 80 16 195 85 182 33 -7 55 4 107 52 17 16 52 35 77 41 55 15 62 39
22 79 l-25 25 26 9 c14 6 32 10 39 10 8 0 19 9 24 19 8 15 6 22 -11 33 -21 14
-21 14 15 36 47 27 50 62 7 92 -34 24 -37 36 -14 61 16 17 17 17 43 0 14 -11
48 -22 74 -25 42 -5 48 -3 45 11 -2 9 -16 20 -32 24 -16 5 -38 17 -51 29 -12
11 -25 17 -28 13 -4 -3 -7 3 -7 15 0 15 8 24 26 28 14 4 33 19 43 34 9 15 37
43 61 62 52 39 61 69 31 109 -12 15 -21 32 -21 36 0 5 19 14 42 21 58 18 68
29 68 69 0 19 9 48 20 63 16 23 30 29 73 34 68 9 177 39 177 49 0 5 31 5 70 1
81 -8 87 -2 67 66 -9 32 -19 46 -37 52 -14 4 10 5 54 2 43 -3 93 -12 112 -20
18 -8 50 -14 70 -14 20 0 66 -5 101 -12 51 -9 74 -9 111 1 71 20 249 32 302
21 75 -16 123 -33 162 -57 35 -21 65 -26 153 -22 17 1 73 -3 125 -8 76 -7 102
-6 132 5 37 15 37 15 90 -29 66 -54 68 -57 68 -94 0 -17 4 -35 9 -40 5 -6 12
-49 15 -97 3 -57 12 -103 25 -134 12 -26 21 -55 21 -65 0 -22 21 -71 35 -81 6
-5 6 -11 -1 -18 -8 -8 -14 -8 -18 -1 -4 6 -16 5 -34 -4 -15 -8 -35 -16 -44
-19 -10 -3 -18 -15 -18 -26 0 -11 -7 -32 -16 -45 -11 -16 -14 -34 -9 -55 4
-18 2 -36 -5 -45 -9 -11 -7 -16 11 -26 18 -9 24 -9 34 5 14 18 25 11 25 -16 0
-10 8 -21 18 -25 114 -39 151 -59 200 -109 41 -43 52 -60 52 -86 0 -41 -8 -54
-42 -67 -53 -20 -48 -106 10 -194 15 -22 27 -58 30 -87 5 -57 -5 -63 -40 -26
-13 13 -42 28 -65 34 -49 11 -53 3 -29 -51 8 -18 16 -48 19 -67 6 -44 55 -152
73 -163 21 -12 18 -85 -3 -89 -10 -2 6 -10 35 -17 31 -8 59 -22 70 -36 25 -32
59 -41 81 -21 16 15 19 15 33 -1 25 -29 45 -75 51 -120 3 -23 3 -44 0 -46 -2
-3 -18 2 -34 11 -26 15 -31 15 -39 2 -5 -8 -10 -29 -10 -47 0 -17 -3 -39 -7
-49 -5 -13 -3 -16 8 -12 16 6 31 -50 44 -156 3 -27 12 -60 20 -73 9 -13 13
-28 10 -33 -8 -13 -35 -13 -35 0 0 6 -11 16 -25 22 -37 17 -51 -2 -25 -34 11
-15 20 -31 20 -36 0 -5 11 -17 25 -26 25 -16 31 -39 19 -70 -3 -9 -10 -13 -15
-10 -5 3 -22 0 -38 -7 l-28 -12 41 -43 c69 -71 136 -154 136 -167 0 -7 14 -26
30 -42 47 -45 80 -108 80 -153 0 -21 3 -42 7 -46 11 -11 33 -79 33 -104 l0
-23 -37 26 c-21 14 -48 25 -61 25 -21 0 -23 -3 -17 -32 4 -18 13 -42 19 -53 7
-11 18 -41 24 -67 7 -26 22 -65 33 -85 12 -21 22 -58 23 -83 0 -28 6 -45 13
-45 7 0 18 -6 25 -13 10 -10 8 -15 -10 -28 -37 -25 -23 -117 27 -177 13 -15
12 -22 -7 -61 -12 -24 -22 -56 -22 -72 0 -36 -42 -84 -73 -84 -12 0 -29 -5
-37 -10 -12 -8 -13 -13 -2 -30 18 -29 15 -57 -9 -89 -28 -39 -23 -95 9 -99 13
-2 27 -14 32 -28 5 -13 16 -24 24 -24 8 0 33 -18 56 -40 23 -22 49 -40 59 -40
9 0 26 -6 37 -14 16 -13 21 -12 36 1 9 8 25 13 35 11 15 -3 19 -16 23 -69 8
-102 37 -134 148 -165 55 -15 65 -21 77 -49 7 -18 27 -44 45 -57 44 -32 79
-112 87 -195 4 -48 11 -74 26 -90 12 -14 22 -42 25 -73 2 -28 9 -53 13 -56 5
-3 9 -14 9 -24 0 -33 48 -182 74 -234 15 -27 26 -56 26 -64 0 -7 9 -25 20 -39
11 -14 20 -31 20 -38 0 -7 45 -103 100 -213 55 -109 100 -206 100 -213 0 -8
14 -41 30 -74 16 -33 30 -65 30 -72 0 -7 6 -27 14 -45 8 -18 28 -64 44 -103
17 -38 33 -81 37 -95 3 -14 14 -47 24 -75 47 -129 71 -229 60 -246 -6 -11 -14
-9 -38 8 -24 18 -30 20 -35 8 -3 -8 -17 -15 -31 -15 -14 0 -34 -9 -45 -20 -12
-12 -28 -19 -37 -18 -13 2 -17 -6 -17 -45 -1 -28 4 -53 11 -59 7 -6 13 -21 13
-35 0 -14 8 -26 19 -31 16 -6 91 -104 91 -119 0 -3 11 -27 24 -53 21 -42 22
-50 10 -61 -8 -6 -14 -19 -14 -28 0 -9 -20 -33 -44 -54 -34 -29 -46 -48 -51
-77 -5 -30 -14 -44 -41 -61 -65 -40 -84 -99 -44 -139 26 -26 38 -25 46 3 4 19
11 23 29 19 14 -2 30 -11 37 -19 10 -13 6 -20 -23 -47 -19 -17 -44 -36 -54
-42 -10 -5 -15 -15 -12 -21 10 -16 44 -4 50 17 3 13 11 17 26 13 33 -9 25 -27
-34 -78 -30 -25 -55 -50 -55 -55 0 -8 -53 -63 -102 -105 -12 -12 -38 -42 -56
-68 -18 -27 -46 -56 -62 -65 -16 -9 -31 -27 -34 -38 -3 -12 -17 -40 -32 -61
l-25 -40 -59 31 c-64 33 -92 30 -98 -11 -8 -52 80 -259 154 -363 28 -40 94
-199 94 -227 0 -6 7 -16 15 -23 8 -7 15 -19 15 -27 0 -8 9 -27 20 -41 29 -37
101 -147 133 -204 15 -26 36 -50 47 -53 11 -3 32 -27 47 -53 15 -26 34 -52 43
-59 13 -11 12 -18 -12 -65 -31 -62 -42 -111 -42 -193 1 -45 -4 -63 -16 -72
-10 -7 -27 -36 -40 -65 -12 -29 -40 -72 -61 -96 -21 -24 -39 -53 -41 -65 -2
-15 -17 -27 -53 -40 -74 -28 -78 -31 -95 -63 -9 -16 -33 -37 -54 -48 -27 -13
-43 -31 -56 -61 -16 -37 -27 -47 -80 -71 -33 -15 -64 -33 -69 -41 -4 -8 -34
-21 -67 -29 -84 -23 -97 -31 -90 -60 4 -16 2 -26 -6 -28 -31 -10 -148 -47
-203 -64 -105 -34 -199 -42 -445 -37 -381 6 -529 43 -705 175 -27 20 -67 40
-89 44 -26 5 -40 14 -44 28 -3 12 -23 28 -48 39 -30 12 -44 24 -44 38 0 25
-24 33 -76 25 -39 -6 -44 -4 -58 22 -8 16 -31 40 -50 54 -20 14 -36 33 -36 42
0 30 -12 48 -30 48 -10 0 -31 5 -45 10 -21 8 -25 13 -16 24 14 17 4 26 -31 26
-21 0 -43 14 -80 47 l-50 48 6 58 c6 57 5 58 -17 51 -77 -24 -236 -124 -255
-162 -11 -20 3 -146 23 -216 23 -77 20 -95 -17 -110 -18 -7 -71 -18 -118 -25
-108 -16 -121 -22 -200 -98 -102 -97 -191 -158 -287 -196 -48 -20 -113 -49
-143 -66 -30 -17 -64 -31 -75 -31 -11 0 -47 -9 -80 -19 -106 -35 -268 -68
-338 -70 -37 -1 -83 -9 -102 -17 -29 -12 -73 -13 -277 -5 -212 7 -254 12 -333
34 -49 14 -135 35 -190 47 -55 12 -110 26 -123 31 -13 5 -32 9 -43 9 -24 0
-76 34 -102 67 -10 13 -27 23 -37 23 -10 0 -22 5 -25 10 -3 6 -15 10 -25 10
-31 0 -53 53 -45 109 l6 46 -53 22 c-29 11 -61 24 -70 27 -20 6 -25 26 -7 26
8 0 8 5 -1 15 -7 8 -23 15 -36 15 -14 0 -25 8 -29 21 -4 13 -28 31 -61 46 -54
24 -67 46 -43 70 7 7 1 12 -24 17 -19 4 -40 13 -47 21 -7 8 -23 15 -36 15 -29
0 -104 29 -104 41 0 4 12 20 27 33 17 16 24 29 18 35 -13 12 -132 49 -183 57
-23 4 -47 12 -53 20 -6 7 -30 16 -54 20 -46 6 -82 33 -58 41 17 6 -2 43 -21
43 -8 0 -44 13 -81 30 -63 28 -68 33 -91 88 -31 71 -59 88 -239 141 -22 7 -50
17 -62 23 -24 12 -31 42 -13 53 18 11 10 25 -25 46 -19 12 -35 28 -35 35 0 32
-31 73 -62 83 -18 6 -44 20 -57 30 l-24 18 36 27 c51 39 55 56 11 49 -30 -5
-34 -3 -34 15 0 26 -13 35 -74 47 -27 6 -51 15 -53 21 -2 6 8 25 22 42 14 16
25 34 25 39 0 19 -47 33 -135 42 -91 9 -165 35 -165 56 0 6 14 21 30 33 56 42
27 96 -57 107 -26 3 -58 10 -71 16 -39 16 -102 71 -102 90 0 44 -99 118 -157
119 -31 0 -30 30 1 67 42 50 14 64 -128 68 -100 3 -115 9 -116 46 0 9 7 22 15
29 20 16 29 73 16 98 -6 11 -24 22 -41 26 -16 3 -43 9 -59 12 -26 5 -30 2 -51
-40 -12 -25 -25 -46 -30 -46 -4 0 -19 9 -34 21 -20 16 -26 29 -26 59 0 47 -20
69 -54 63 -19 -4 -26 -1 -26 10 0 22 32 38 51 26 7 -5 33 -9 56 -9 33 0 46 -6
66 -29 l25 -30 6 30 c3 16 5 32 5 35 0 4 5 10 13 15 8 5 13 32 14 78 l2 71
-51 31 c-45 28 -49 33 -34 44 24 17 21 25 -7 25 -14 0 -31 7 -39 15 -8 8 -37
18 -63 22 -39 7 -49 12 -49 28 0 12 10 21 30 27 17 4 35 16 42 27 11 18 9 19
-29 13 l-40 -5 17 26 c17 26 16 28 -9 59 -14 18 -35 42 -46 53 -14 15 -20 34
-20 67 0 28 -6 50 -15 58 -10 8 -15 31 -15 71 0 33 -4 67 -9 77 -6 9 -12 29
-16 44 -7 36 -52 50 -71 23 -15 -20 -13 -76 4 -118 7 -16 12 -52 12 -81 0 -28
6 -58 12 -64 9 -9 14 -58 16 -153 6 -213 -8 -251 -69 -190 -17 17 -37 31 -45
31 -29 0 -54 74 -54 164 0 47 -4 87 -9 90 -4 3 -11 29 -15 58 -8 62 -35 168
-47 184 -5 6 -13 52 -18 101 -10 98 -41 185 -73 208 -20 13 -20 13 0 24 27 14
37 45 33 103 -2 42 -1 47 21 50 18 2 24 11 28 38 4 24 10 34 20 32 18 -4 60
-42 60 -55 0 -13 83 -97 97 -97 18 0 27 44 19 95 -5 38 -3 46 14 55 16 8 20
21 20 56 l0 46 33 -5 c32 -4 87 -22 119 -38 22 -11 34 7 18 26 -7 8 -10 21 -7
29 9 22 57 7 102 -31 40 -34 40 -34 57 -13 13 15 14 28 8 51 -17 58 10 76 57
39 35 -27 67 -27 60 1 -4 15 -2 19 8 15 8 -3 21 2 30 10 13 13 12 19 -10 54
-14 22 -25 47 -25 55 0 9 23 26 55 41 68 33 83 49 67 74 -10 17 -7 21 28 31
23 7 40 18 40 27 0 8 14 32 31 53 17 21 28 43 24 49 -3 6 -46 10 -96 10 l-89
0 -43 -39 c-28 -25 -62 -44 -100 -55 -57 -17 -60 -16 -93 3 -44 26 -52 26 -80
0 -27 -25 -55 -27 -190 -10 -95 12 -102 12 -134 -8 -30 -18 -37 -19 -67 -6
-18 8 -54 30 -79 49 -26 20 -50 33 -55 30 -5 -3 -9 -25 -9 -49 0 -54 -21 -71
-69 -54 -24 8 -39 8 -61 -1 -24 -10 -33 -10 -45 0 -24 20 -59 -2 -90 -54 -39
-66 -66 -64 -147 14 -35 33 -67 58 -73 57 -5 -2 -13 -26 -16 -53 -9 -71 -51
-144 -83 -144 -19 0 -92 35 -100 49 -3 5 -32 23 -64 39 -66 35 -82 30 -82 -23
0 -18 -7 -54 -15 -81 -8 -27 -15 -68 -15 -91 0 -46 -20 -73 -53 -73 -12 0 -51
16 -86 35 l-63 34 6 -32 c27 -158 27 -177 -9 -177 -12 0 -46 18 -76 39 -56 40
-120 71 -146 71 -19 0 -14 -25 18 -98 18 -41 21 -57 12 -70 -11 -18 -24 -20
-59 -8 -18 5 -23 2 -29 -21 -15 -63 -54 -69 -142 -23 -76 38 -113 47 -113 27
0 -9 4 -18 9 -21 13 -9 51 -93 51 -115 0 -38 -23 -70 -61 -85 -20 -8 -40 -20
-44 -25 -3 -6 19 -38 50 -71 31 -34 64 -80 74 -103 13 -30 27 -45 50 -54 27
-10 32 -9 41 7 14 25 13 157 -2 219 -13 60 -5 76 48 86 44 8 60 -5 76 -59 6
-22 16 -47 22 -54 5 -8 27 -46 47 -85 30 -58 43 -74 68 -81 26 -8 34 -5 51 14
11 13 20 26 20 30 0 4 13 10 29 12 20 3 37 -3 60 -23 28 -23 31 -29 21 -50
-13 -28 1 -79 22 -79 7 0 20 -15 28 -33 9 -20 24 -33 38 -35 22 -3 26 4 23 41
-1 9 4 20 13 23 30 12 -19 79 -65 89 -35 8 -45 21 -29 40 17 21 2 74 -23 85
-61 25 -87 76 -87 166 0 50 2 54 24 54 16 0 48 -23 98 -72 155 -152 194 -168
225 -93 10 25 24 45 31 45 7 0 24 -26 37 -57 14 -32 32 -71 40 -86 17 -33 20
-83 5 -92 -15 -9 -12 -82 4 -113 7 -15 23 -67 35 -117 33 -135 82 -279 98
-288 15 -9 103 -182 103 -203 0 -7 9 -16 20 -19 16 -5 20 -15 20 -49 0 -24 -7
-57 -16 -74 -11 -23 -12 -36 -5 -51 16 -29 13 -41 -9 -41 -12 0 -20 7 -20 16
0 31 -109 155 -176 201 -18 12 -52 30 -76 41 -37 17 -119 87 -261 225 -43 42
-62 46 -77 18 -22 -42 -11 -65 76 -154 46 -48 90 -87 96 -87 6 0 21 -10 33
-22 12 -13 34 -32 49 -43 42 -30 106 -97 106 -109 0 -6 14 -23 32 -38 29 -23
33 -32 32 -74 -1 -33 -6 -51 -19 -60 -15 -11 -17 -22 -11 -71 4 -37 13 -63 25
-73 23 -20 51 -110 51 -168 0 -62 37 -195 66 -238 13 -19 24 -39 24 -44 0 -5
6 -24 14 -42 16 -39 55 -135 66 -163 14 -35 41 -119 52 -160 6 -22 19 -48 29
-57 11 -9 22 -31 25 -50 4 -18 15 -51 26 -73 11 -22 26 -60 35 -85 8 -25 21
-52 29 -60 7 -9 23 -47 35 -85 11 -39 25 -74 29 -80 4 -5 11 -25 15 -42 4 -21
20 -44 44 -62 32 -26 39 -38 44 -79 6 -53 26 -104 37 -97 4 3 10 40 14 83 8
85 33 142 64 142 21 0 62 -27 62 -42 0 -5 9 -23 20 -38 11 -16 27 -48 36 -72
8 -23 23 -52 34 -63 10 -11 35 -57 56 -102 20 -46 41 -83 46 -83 4 0 8 -7 8
-15 0 -21 37 -92 52 -102 16 -10 38 -65 47 -118 9 -48 18 -65 35 -65 21 0 44
-43 48 -86 2 -31 9 -42 31 -52 15 -7 27 -19 27 -26 0 -7 13 -30 29 -50 20 -25
32 -56 41 -103 6 -36 18 -84 25 -107 8 -23 15 -52 15 -66 0 -15 5 -31 11 -37
5 -5 11 -26 11 -44 0 -19 14 -62 29 -96 33 -72 36 -93 12 -93 -27 1 -50 39
-58 97 -4 31 -14 58 -26 69 -10 9 -19 22 -19 29 0 23 -60 199 -73 214 -8 9
-20 32 -27 51 -20 51 -29 60 -65 60 -39 0 -60 -21 -50 -52 3 -13 10 -39 15
-58 11 -46 73 -204 86 -222 6 -7 22 -33 35 -58 13 -25 34 -57 47 -71 13 -15
26 -45 29 -67 9 -68 69 -103 99 -57 15 24 54 35 54 16 0 -5 14 -22 30 -38 17
-15 30 -36 30 -46 0 -10 11 -28 24 -40 12 -12 34 -44 48 -72 51 -102 74 -139
106 -168 32 -29 42 -62 20 -69 -8 -3 -5 -16 11 -41 33 -54 47 -47 42 19 -3 28
30 42 44 18 6 -9 20 -29 32 -44 13 -15 37 -64 54 -109 17 -44 35 -83 40 -86 4
-3 11 -28 15 -55 4 -31 15 -59 29 -74 16 -17 24 -43 29 -87 4 -35 12 -71 17
-80 5 -10 14 -50 19 -91 6 -40 19 -90 30 -111 15 -29 20 -58 20 -122 0 -46 5
-87 10 -90 15 -9 12 -32 -6 -54 -16 -19 -18 -18 -67 30 -49 48 -52 49 -81 38
-46 -18 -56 -29 -56 -59 0 -41 22 -133 35 -150 25 -31 65 -134 65 -167 0 -18
7 -44 15 -57 13 -19 14 -33 6 -67 -5 -24 -12 -56 -16 -71 -6 -33 -27 -36 -46
-7 -12 17 -20 19 -55 14 l-41 -7 4 -42 c6 -45 23 -71 66 -93 27 -13 29 -13 34
7 8 30 26 19 41 -25 7 -22 24 -54 37 -71 14 -18 25 -38 25 -44 0 -6 11 -32 24
-58 13 -26 26 -64 30 -86 4 -21 11 -46 16 -55 24 -42 40 -97 40 -135 0 -24 10
-60 24 -87 13 -25 34 -83 46 -129 11 -47 25 -101 30 -120 5 -19 10 -65 10
-102 0 -37 5 -70 10 -73 18 -11 11 -35 -10 -35 -11 0 -20 4 -20 10 0 11 -59
70 -71 70 -4 0 -11 -9 -14 -20 -7 -21 -64 -80 -78 -80 -4 0 -15 17 -24 37 -16
39 -118 155 -128 145 -3 -3 -5 2 -5 11 0 9 5 19 10 22 6 3 10 15 10 25 0 11 9
24 20 30 22 12 25 31 11 58 -6 9 -12 30 -16 45 -5 24 -8 27 -21 16 -11 -9 -18
-9 -26 -1 -14 14 -78 16 -78 3 0 -5 7 -11 15 -15 9 -3 15 -18 15 -39 0 -19 9
-45 19 -58 16 -20 17 -28 6 -42 -13 -19 -35 -23 -35 -7 0 6 -9 19 -20 30 -17
17 -24 18 -41 9 -20 -10 -21 -17 -15 -83 13 -153 35 -246 57 -246 9 0 37 -56
41 -85 4 -27 -39 -34 -49 -8 -11 31 -46 63 -69 63 -25 0 -39 15 -48 53 -7 29
-79 81 -126 92 -14 3 -33 19 -42 36 -35 61 -80 7 -49 -58 8 -18 18 -33 22 -33
5 0 36 -25 70 -55 34 -30 67 -55 73 -55 7 0 25 -13 41 -30 18 -19 39 -30 57
-30 21 0 46 -18 101 -70 l74 -70 12 -109 c10 -87 10 -120 0 -169 -12 -55 -11
-63 5 -81 20 -23 46 -102 46 -143 0 -16 12 -50 26 -75 15 -25 27 -58 26 -74 0
-16 4 -29 9 -29 5 0 9 -11 9 -25 0 -14 -4 -25 -10 -25 -5 0 -10 10 -10 23 0
17 -14 31 -54 56 -30 18 -56 36 -58 39 -4 8 -54 49 -93 77 -16 11 -40 31 -54
46 -32 31 -64 45 -125 54 -36 6 -47 4 -52 -8 -8 -23 25 -68 63 -83 18 -8 33
-18 33 -23 0 -5 16 -43 35 -84 19 -41 35 -79 35 -83 0 -5 9 -15 19 -21 11 -7
22 -29 26 -55 4 -24 13 -50 20 -58 27 -33 42 -148 29 -227 -6 -40 -5 -43 25
-60 30 -18 42 -43 19 -43 -6 0 -4 -7 5 -18 21 -23 22 -62 3 -62 -20 0 -143 56
-147 68 -7 17 -181 94 -191 84 -15 -15 9 -84 38 -112 26 -24 64 -99 64 -125 0
-7 13 -18 29 -23 22 -8 30 -18 33 -44 3 -18 1 -36 -5 -40 -19 -12 2 -22 38
-20 65 4 80 3 132 -9 56 -14 69 -29 52 -60 -8 -17 -13 -18 -25 -8 -25 20 -41
-4 -24 -36 12 -23 12 -28 0 -35 -8 -6 -23 -10 -32 -10 -13 0 -18 -9 -19 -32
l-2 -33 -7 35 -7 35 -2 -30 c-4 -49 -9 -69 -20 -73 -6 -2 -11 -9 -11 -15 0 -7
-19 -27 -41 -46 -36 -30 -42 -32 -57 -18 -9 8 -46 18 -82 22 -98 10 -177 24
-255 45 -221 60 -356 82 -370 60 -3 -5 20 -23 52 -38 32 -16 103 -52 158 -81
55 -28 105 -51 112 -51 8 0 30 -11 51 -24 20 -14 57 -30 82 -37 70 -19 75 -27
54 -86 l-17 -49 41 -42 c23 -23 52 -47 64 -52 13 -6 30 -14 38 -19 8 -5 38
-18 65 -29 55 -22 73 -52 32 -52 -13 0 -27 3 -31 7 -4 5 -29 13 -54 20 -26 6
-74 19 -107 27 -33 8 -104 19 -159 25 -58 6 -105 16 -115 24 -9 8 -32 18 -51
22 -19 4 -51 18 -72 31 -21 13 -43 24 -51 24 -7 0 -37 16 -67 35 -69 45 -129
68 -166 63 -26 -3 -29 -7 -32 -40 -2 -25 -11 -43 -25 -54 -16 -12 -18 -17 -8
-21 7 -3 21 -15 30 -26 49 -62 95 -107 110 -107 25 -1 51 -25 51 -48 0 -19
-44 -65 -71 -74 -16 -5 -3 -61 22 -89 10 -12 19 -33 19 -47 0 -24 -1 -24 -52
-18 -29 4 -58 11 -64 17 -6 5 -51 16 -100 24 -147 25 -297 68 -361 103 -12 7
-29 12 -37 12 -9 0 -25 9 -36 20 -11 11 -26 20 -33 20 -6 0 -34 27 -62 60 -27
33 -55 60 -61 60 -6 0 -19 9 -30 21 -10 12 -39 32 -64 45 -25 13 -54 29 -65
36 -42 24 -51 28 -72 38 -46 20 -103 61 -98 70 3 6 30 10 60 10 30 0 56 4 59
8 3 5 -18 19 -47 32 -75 34 -194 93 -213 107 -22 16 -11 30 33 37 82 14 93 18
93 32 0 8 -26 27 -57 42 -32 15 -70 36 -84 45 -24 16 -26 21 -16 48 10 26 9
32 -13 53 -14 14 -82 54 -152 90 -188 96 -204 110 -175 157 11 19 7 25 -38 65
-27 25 -62 51 -77 59 -15 9 -39 32 -53 53 -23 33 -24 38 -9 49 17 13 9 38 -21
63 -9 7 -13 21 -10 31 3 9 1 20 -5 24 -5 3 -10 16 -10 27 0 23 -5 23 155 -3
33 -6 80 -13 103 -16 l44 -5 -32 43 c-17 24 -55 61 -84 83 -65 50 -106 97
-106 124 0 39 -55 69 -285 156 -100 38 -161 85 -175 136 -8 29 -21 47 -43 60
-18 11 -35 20 -39 20 -4 0 -15 -16 -24 -36 -14 -30 -32 -43 -98 -75 -93 -45
-216 -111 -248 -133 -18 -13 -19 -16 -6 -21 9 -4 25 -2 37 4 11 6 59 11 106
11 84 0 86 -1 83 -22 -2 -14 -16 -30 -37 -40 -19 -10 -39 -25 -44 -33 -5 -9
-23 -25 -40 -35 l-30 -19 26 -6 c34 -9 34 -23 2 -35 -14 -5 -25 -14 -25 -20 0
-6 -12 -16 -27 -22 -16 -7 -38 -22 -49 -35 l-22 -22 -6 22 -6 22 -23 -26 c-14
-15 -39 -28 -61 -32 -38 -6 -66 -22 -66 -38 0 -15 36 -10 61 9 40 29 76 45 89
37 7 -5 3 -14 -13 -28 -38 -36 -74 -50 -124 -51 l-48 -1 -3 -43 c-2 -23 -7
-42 -11 -42 -5 0 -22 13 -37 29 -26 27 -34 29 -73 24 -29 -4 -45 -12 -48 -23
-3 -11 -12 -16 -27 -13 -13 3 -28 -2 -35 -11 -8 -9 -19 -16 -25 -16 -7 0 -23
-11 -36 -25 -13 -14 -29 -25 -36 -25 -22 0 -27 -20 -10 -39 9 -10 16 -21 16
-26 0 -10 -51 -87 -63 -96 -5 -3 -8 -26 -7 -50 3 -69 1 -79 -15 -79 -9 0 -29
-7 -45 -15 -29 -15 -30 -15 -30 5 0 11 -8 33 -18 47 -9 15 -21 41 -27 57 -5
17 -18 32 -28 34 -28 6 -67 -25 -67 -53 0 -13 -7 -28 -16 -33 -21 -12 -14 -90
10 -108 16 -11 16 -13 -3 -19 -12 -3 -25 -4 -30 0 -6 3 -37 1 -70 -4 -88 -14
-127 -6 -145 33 -8 17 -12 43 -9 58 9 46 -1 58 -38 48 -47 -14 -80 -55 -121
-151 -26 -60 -45 -89 -65 -101 -40 -24 -67 -23 -60 1 3 12 -4 28 -18 41 l-23
21 -71 -21 c-43 -13 -75 -28 -81 -40 -5 -10 -26 -24 -45 -30 -19 -6 -35 -15
-35 -20 0 -5 -21 -25 -48 -45 -49 -38 -71 -68 -72 -97 0 -16 10 -18 83 -18 56
0 98 6 132 19 28 10 82 21 121 25 72 7 124 20 204 53 75 31 114 63 75 63 -16
0 -20 16 -6 24 5 3 11 -1 15 -9 6 -16 51 -21 61 -6 7 12 72 43 138 67 26 9 57
26 70 38 12 11 38 22 56 23 19 1 50 13 70 26 20 13 74 33 121 45 47 11 112 30
145 42 106 37 211 52 372 52 84 0 170 -3 193 -7 46 -8 51 4 25 54 -19 37 -9
127 17 153 28 28 22 38 -12 21 -37 -18 -55 -7 -65 37 -8 39 1 53 25 40 10 -5
73 -12 140 -14 87 -4 125 -9 134 -19 6 -8 32 -22 58 -31 26 -10 60 -32 76 -51
36 -40 33 -67 -12 -134 -31 -47 -49 -64 -101 -92 -33 -18 -37 -47 -10 -64 41
-25 77 -63 70 -74 -5 -9 -11 -9 -23 2 -10 8 -30 18 -47 21 -16 4 -37 13 -45
20 -8 7 -46 23 -85 36 -38 12 -80 26 -92 31 -13 5 -60 14 -106 20 -71 11 -100
10 -188 -4 -142 -21 -190 -31 -214 -44 -32 -17 -121 -43 -146 -43 -13 -1 -35
-7 -49 -15 -14 -8 -35 -14 -48 -15 -12 0 -32 -11 -44 -25 -14 -17 -28 -23 -40
-19 -26 8 -86 -14 -132 -47 -22 -16 -46 -29 -54 -29 -20 0 -131 -82 -132 -97
0 -6 -9 -18 -20 -26 -11 -8 -18 -16 -15 -19 3 -2 52 -3 110 -2 85 2 107 0 112
-12 3 -8 19 -14 40 -14 19 0 48 -7 64 -15 16 -8 42 -22 58 -30 16 -8 35 -15
43 -15 27 0 68 -50 68 -84 0 -32 -42 -86 -68 -86 -6 0 -16 -9 -22 -20 -9 -17
-4 -28 32 -71 23 -28 44 -46 46 -39 2 6 -1 17 -7 24 -15 18 6 35 52 43 69 11
99 -33 52 -77 -20 -19 -27 -21 -40 -10 -13 10 -15 9 -15 -8 0 -11 6 -25 14
-31 25 -21 26 -49 2 -54 -33 -8 -94 -1 -110 13 -17 13 -36 6 -36 -14 0 -8 -14
-19 -30 -26 -25 -10 -30 -18 -29 -44 1 -28 2 -29 8 -7 9 32 28 38 36 12 6 -20
25 -30 25 -13 0 16 45 30 63 20 27 -14 21 -23 -36 -51 -63 -32 -93 -34 -100
-7 -3 13 -14 20 -30 20 -25 0 -57 27 -57 48 0 7 -8 28 -19 47 -16 29 -17 42
-9 75 6 22 16 40 22 41 6 0 0 5 -14 11 -43 18 -419 25 -579 11 -140 -13 -171
-22 -171 -48 0 -8 -5 -15 -11 -17 -8 -3 -7 -13 4 -35 19 -35 14 -43 -25 -43
-16 0 -31 -6 -34 -15 -7 -17 -56 -20 -84 -5 -24 13 -98 -4 -150 -34 -54 -31
-221 -165 -255 -204 l-29 -35 64 7 c239 24 279 19 507 -62 148 -53 418 -200
553 -302 73 -55 188 -120 203 -114 8 3 18 21 21 39 4 19 18 59 31 90 14 31 25
62 25 70 0 7 17 51 39 97 21 46 48 108 61 138 39 97 93 193 147 268 30 39 57
72 61 72 4 0 28 18 52 41 25 22 61 53 80 67 56 41 110 94 131 130 19 29 25 32
68 32 26 0 56 7 68 15 31 22 149 65 176 65 13 0 33 9 45 20 12 11 28 20 37 20
23 0 18 -28 -7 -36 -12 -3 -30 -15 -41 -25 -30 -27 -160 -115 -228 -153 -19
-10 -54 -34 -79 -53 -25 -18 -72 -54 -105 -79 -156 -118 -237 -227 -377 -506
-21 -43 -38 -81 -38 -84 0 -3 -6 -20 -14 -37 -13 -30 -21 -54 -61 -180 -8 -26
-15 -59 -15 -73 0 -13 -6 -27 -14 -30 -8 -3 -57 19 -108 49 -313 183 -566 317
-648 342 -14 4 -29 11 -35 15 -5 4 -44 17 -85 29 -41 13 -88 27 -104 32 -66
21 -436 6 -566 -22 -25 -6 -64 -14 -87 -19 -61 -13 -101 -36 -157 -89 -98 -93
-113 -107 -137 -126 -44 -35 -107 -119 -134 -178 -15 -31 -31 -60 -36 -63 -5
-3 -9 -14 -9 -24 0 -11 -9 -24 -20 -30 -11 -6 -20 -19 -20 -30 0 -11 -7 -36
-16 -57 -26 -58 -41 -94 -59 -138 -9 -22 -20 -49 -25 -60 -31 -68 -70 -207
-70 -248 0 -55 -18 -95 -99 -217 -30 -47 -62 -97 -71 -112 -37 -66 -134 -199
-151 -209 -10 -5 -26 -23 -34 -39 -9 -17 -22 -30 -30 -30 -23 0 -19 62 5 83
16 13 20 29 20 72 0 30 -3 55 -7 55 -5 0 -15 -17 -24 -38 -10 -20 -35 -76 -58
-124 -23 -48 -41 -90 -41 -93 0 -3 -17 -42 -38 -88 -36 -76 -67 -149 -129
-302 -28 -68 -40 -96 -77 -178 -14 -32 -26 -60 -26 -64 0 -3 -18 -44 -41 -91
-23 -47 -49 -112 -59 -143 -10 -31 -23 -65 -29 -75 -29 -55 -80 -219 -65 -212
45 20 61 32 69 51 16 34 35 33 35 -2 0 -17 4 -31 9 -31 5 0 7 40 5 89 -3 77
-2 91 13 99 19 11 43 81 43 128 0 41 20 67 50 62 21 -3 45 -33 62 -79 7 -17
-15 -69 -49 -116 -13 -17 -23 -39 -23 -48 0 -18 -37 -111 -70 -175 -10 -19
-21 -51 -24 -70 -22 -119 -45 -161 -75 -137 -11 9 -15 9 -18 0 -3 -7 -13 -13
-23 -13 -32 0 -42 25 -38 95 2 40 -1 64 -7 62 -5 -2 -12 -14 -13 -28 -2 -13
-10 -31 -17 -39 -7 -8 -22 -42 -34 -75 -13 -33 -31 -76 -42 -95 -20 -38 -59
-139 -89 -235 -51 -158 -143 -394 -225 -574 -56 -122 -75 -170 -121 -291 l-28
-74 -4 -1378 -5 -1378 1052 0 c897 0 1051 2 1051 14 0 8 19 29 42 48 22 18 51
42 62 53 24 23 91 55 115 55 9 0 22 5 29 12 9 9 12 8 12 -4 0 -8 -7 -21 -15
-28 -9 -7 -15 -29 -15 -50 0 -30 -7 -46 -31 -69 l-31 -31 12531 0 c6892 0
12531 2 12531 5 0 3 -16 37 -35 75 -19 37 -43 101 -54 142 -37 134 -85 263
-186 493 -31 72 -87 222 -124 335 -38 113 -82 239 -99 280 -100 243 -126 343
-109 412 4 13 36 58 72 99 49 55 70 88 82 128 19 66 16 97 -32 306 -20 88 -43
192 -51 230 -8 39 -21 97 -29 130 -7 33 -21 92 -30 130 -45 192 -70 268 -145
450 -23 55 -59 143 -80 195 -57 140 -102 243 -153 350 -47 100 -73 178 -155
475 -104 372 -116 457 -108 750 4 121 9 265 12 320 9 165 -28 525 -71 702 -14
57 -25 109 -25 116 0 7 -14 56 -31 108 -34 101 -90 220 -147 309 -31 49 -207
287 -222 300 -3 3 -82 93 -177 200 -193 220 -509 524 -677 650 -28 21 -76 59
-106 84 -148 122 -364 281 -551 407 -65 44 -109 92 -109 120 0 39 101 202 261
422 60 82 125 179 145 215 20 37 67 121 104 187 147 261 228 439 310 684 50
150 60 194 70 295 6 65 22 171 36 235 33 155 42 235 60 571 19 359 19 332 6
415 -7 39 -17 151 -22 250 -6 99 -18 218 -26 265 -9 47 -22 117 -29 155 -7 39
-17 83 -24 98 -6 16 -11 51 -11 79 0 28 -4 67 -9 87 -6 20 -17 63 -25 97 -9
33 -16 79 -16 102 0 26 -10 63 -25 92 -13 26 -29 69 -35 95 -6 25 -32 92 -59
148 -27 56 -55 121 -62 144 -6 23 -31 65 -55 94 -30 37 -47 69 -54 104 -8 38
-22 63 -54 97 -24 26 -47 60 -51 75 -3 15 -24 55 -44 88 -21 33 -51 93 -66
133 -32 80 -43 93 -142 161 -56 39 -76 60 -115 126 -40 67 -48 88 -48 130 0
40 -5 55 -28 80 -27 28 -92 177 -92 209 0 18 -56 66 -79 66 -26 0 -41 20 -41
55 0 51 -20 104 -43 117 -12 6 -49 19 -82 28 -68 19 -93 45 -101 105 -10 77
-14 85 -35 85 -27 0 -57 16 -92 49 -40 37 -48 55 -66 150 -16 86 -23 95 -72
105 -15 3 -35 21 -50 43 -18 28 -45 49 -104 78 -77 39 -81 43 -96 90 -13 38
-27 58 -59 80 -27 20 -49 48 -65 82 -22 49 -27 53 -77 67 -29 9 -77 20 -106
26 -29 5 -63 17 -75 25 -12 8 -40 15 -63 15 -27 0 -51 7 -68 21 -43 33 -80
108 -86 169 l-5 55 -47 0 c-39 0 -53 5 -75 28 -27 27 -28 30 -25 133 2 120 -2
127 -67 95 -22 -12 -42 -21 -45 -21 -3 0 -21 16 -40 35 -32 32 -40 35 -74 29
-51 -8 -55 2 -56 133 -1 56 -4 104 -7 107 -3 3 -23 -1 -44 -8 -61 -21 -70 -11
-85 96 -7 51 -16 98 -21 104 -17 21 -51 2 -114 -62 -33 -34 -67 -63 -75 -65
-27 -5 -55 11 -80 46 -22 31 -29 35 -55 29 -56 -11 -58 -10 -78 41 -10 28 -29
59 -42 70 -13 11 -32 36 -43 55 -14 27 -26 35 -48 37 -16 0 -37 2 -46 2 -9 1
-29 21 -43 46 -29 49 -86 90 -115 82 -21 -5 -41 14 -84 81 -18 30 -41 49 -71
62 -53 23 -61 36 -70 123 -8 72 -13 79 -73 90 -19 4 -67 23 -108 42 -67 32
-77 40 -97 83 -19 41 -27 47 -56 50 -44 4 -156 67 -179 100 -11 15 -35 59 -56
97 -53 104 -87 140 -141 154 -28 7 -51 20 -61 36 -8 13 -32 29 -52 36 -20 6
-48 18 -62 27 -28 17 -146 42 -205 42 -22 0 -54 9 -72 20 -33 19 -33 21 -33
95 0 57 -5 82 -20 107 -14 24 -20 51 -20 96 0 44 -6 75 -21 104 -16 31 -19 51
-14 84 5 35 1 53 -24 101 -16 33 -32 77 -36 99 -10 59 -53 183 -75 219 -11 18
-34 90 -51 161 -27 109 -31 147 -31 249 1 124 22 287 43 327 6 13 26 43 44 68
17 25 39 65 49 89 28 73 94 161 211 282 134 138 168 199 221 394 33 121 36
144 44 345 15 356 17 370 98 540 65 138 104 292 117 470 4 47 11 112 15 145 5
33 12 139 15 235 2 97 9 198 14 225 5 28 17 131 26 230 24 266 45 464 56 515
18 88 61 367 75 485 22 191 37 771 30 1175 -7 388 -16 587 -41 900 -8 107 -19
265 -25 350 -17 268 -53 617 -82 785 -40 234 -46 262 -86 435 -46 200 -69 282
-118 430 -19 58 -39 125 -44 150 -25 131 -89 231 -146 229 -16 0 -39 -5 -51
-11z m-5472 -3776 c45 -27 74 -28 96 -2 25 28 31 25 35 -17 4 -52 34 -65 127
-57 67 7 74 10 128 56 46 41 61 49 82 43 14 -3 40 -9 56 -12 17 -3 39 -12 50
-18 11 -7 38 -16 60 -20 21 -4 52 -13 67 -21 15 -8 55 -14 91 -14 53 0 71 -5
111 -30 27 -17 61 -33 77 -37 37 -7 58 -65 51 -143 -4 -49 -8 -58 -33 -72 -29
-17 -40 -60 -19 -73 10 -6 90 43 90 55 0 14 84 58 123 65 33 7 38 5 47 -20 13
-35 13 -102 -1 -111 -21 -13 7 -25 35 -14 43 16 84 12 116 -11 16 -12 46 -25
67 -28 39 -7 52 -26 37 -59 -4 -9 -8 -22 -9 -27 -5 -23 -56 -88 -91 -116 -24
-19 -48 -29 -71 -29 -44 0 -76 -17 -69 -36 3 -8 -1 -17 -9 -20 -8 -4 -15 -15
-15 -25 0 -15 7 -19 33 -19 23 0 41 -8 57 -25 27 -29 36 -30 77 -10 52 26 63
14 56 -65 l-6 -68 32 -16 c17 -9 31 -23 31 -30 0 -7 9 -34 20 -60 23 -52 19
-108 -9 -129 -9 -6 -24 -24 -34 -39 -10 -16 -24 -28 -31 -28 -8 0 -16 -4 -18
-9 -5 -15 -80 -61 -98 -61 -9 0 -38 -16 -63 -35 -25 -19 -50 -35 -56 -35 -12
0 -62 -49 -205 -203 -106 -114 -166 -200 -166 -239 0 -28 41 -19 57 11 14 28
78 65 99 57 9 -4 24 17 47 67 19 40 52 92 73 117 22 25 55 67 72 95 35 52 63
74 98 75 25 0 104 -95 104 -125 0 -22 -47 -88 -116 -164 -29 -31 -64 -80 -78
-110 -31 -65 -30 -59 -9 -57 10 0 23 -11 31 -27 11 -23 16 -26 33 -16 31 16
51 5 40 -23 -4 -13 -12 -45 -16 -73 -4 -30 -19 -66 -37 -92 -20 -28 -28 -48
-24 -60 6 -15 10 -13 27 14 11 18 29 35 38 38 10 3 38 30 62 61 24 30 54 61
65 69 12 8 24 29 28 47 4 23 16 39 36 51 17 10 43 32 60 50 27 29 31 31 46 15
18 -18 11 -38 -14 -38 -13 0 -13 -2 4 -15 10 -8 31 -15 47 -15 34 0 37 -31 5
-45 -30 -13 -75 -107 -81 -166 -4 -45 -4 -46 16 -30 11 9 27 23 36 32 9 9 26
21 38 28 12 6 24 24 28 40 4 18 15 33 26 36 24 8 84 -19 93 -40 7 -19 45 -19
95 1 21 8 54 14 72 12 30 -3 35 -9 62 -73 41 -98 43 -112 20 -133 -21 -19 -45
-72 -43 -93 5 -33 -2 -47 -24 -53 -15 -4 -26 -15 -28 -28 -2 -12 -13 -28 -25
-34 l-23 -11 26 -12 c21 -9 24 -14 14 -26 -10 -12 -10 -15 3 -15 9 0 17 13 21
33 4 17 23 54 42 81 36 49 37 49 53 28 l16 -22 12 27 c22 55 35 104 29 118 -3
8 -1 17 4 20 6 4 10 1 10 -4 0 -6 7 -11 15 -11 8 0 15 6 15 13 0 14 68 81 91
90 23 8 39 -12 39 -49 0 -18 5 -36 10 -39 14 -9 -7 -45 -26 -45 -8 0 -19 -11
-24 -25 -5 -14 -16 -25 -23 -25 -8 0 -22 -9 -32 -20 -10 -11 -23 -20 -29 -20
-17 0 -40 -60 -37 -94 2 -20 -4 -35 -18 -45 -19 -14 -20 -20 -9 -53 13 -45 0
-77 -56 -138 -31 -33 -35 -44 -26 -55 12 -14 11 -30 -5 -67 -5 -14 -2 -18 13
-18 25 0 34 -12 26 -34 -4 -11 -11 -13 -22 -7 -10 6 -20 4 -30 -5 -7 -8 -22
-14 -33 -14 -23 0 -24 -4 -2 -36 15 -23 15 -26 0 -41 -15 -15 -17 -15 -26 8
l-10 24 0 -26 c-1 -43 -21 -88 -36 -83 -7 3 -19 -4 -25 -16 -10 -19 -18 -21
-49 -16 -31 5 -41 2 -58 -18 -19 -21 -19 -25 -5 -52 19 -36 28 -42 56 -37 19
4 31 -7 68 -59 42 -58 78 -127 78 -149 0 -5 -6 -9 -14 -9 -25 0 -48 -31 -42
-56 5 -17 2 -24 -8 -24 -7 0 -26 -16 -41 -36 l-28 -37 -18 24 c-9 13 -20 36
-23 51 -8 41 -50 39 -72 -3 -16 -32 -12 -123 7 -135 15 -9 10 -56 -8 -76 -9
-10 -26 -18 -38 -18 -13 0 -28 -7 -35 -15 -7 -8 -20 -15 -30 -15 -9 0 -25 -8
-34 -19 -9 -10 -31 -21 -47 -25 -17 -3 -44 -20 -60 -37 l-30 -32 -27 26 c-22
21 -31 24 -40 15 -9 -9 -8 -16 4 -30 15 -16 15 -19 0 -43 -17 -27 -32 -31 -56
-15 -10 6 -24 2 -47 -16 l-33 -25 -6 41 c-4 23 -12 47 -18 53 -24 25 -46 99
-46 160 -1 73 -33 150 -65 156 -28 5 -35 19 -35 74 0 26 -5 56 -11 66 -9 14
-9 26 0 51 13 39 1 60 -33 60 -17 0 -24 9 -33 43 -7 25 -8 43 -2 45 15 6 10
39 -6 46 -19 7 -19 77 0 131 8 22 15 41 15 42 0 1 -13 4 -30 8 -16 3 -32 14
-35 24 -12 40 -12 107 0 140 7 20 16 53 20 75 4 26 12 40 26 43 25 7 24 25 -6
69 -14 20 -25 45 -25 55 0 19 25 49 41 49 18 0 8 54 -17 87 -32 42 -58 43 -74
3 -18 -43 -56 -71 -83 -61 -27 10 -56 86 -61 157 -2 28 -9 60 -15 72 -7 13 -9
38 -5 61 6 37 4 41 -19 50 -30 11 -51 48 -61 105 -6 31 -3 45 18 77 14 21 26
47 26 56 0 10 7 36 15 58 8 22 14 61 15 88 0 41 -3 49 -25 59 -14 6 -28 22
-31 35 -4 13 -10 23 -14 23 -15 0 -29 64 -25 107 4 35 1 45 -17 57 -16 11 -26
12 -41 5 -16 -9 -25 -5 -54 28 -29 31 -37 49 -43 96 -5 48 -12 63 -36 82 -16
13 -29 29 -29 37 0 7 -10 17 -22 23 -17 7 -23 18 -23 42 0 17 -3 39 -6 48 -6
14 -8 14 -25 -1 -11 -9 -19 -26 -19 -38 0 -18 -4 -16 -31 14 -33 35 -59 96
-52 118 3 7 -3 25 -13 40 -38 56 -54 93 -54 122 0 17 -7 47 -17 68 -9 20 -19
66 -23 102 -7 62 -24 118 -45 150 -5 8 -15 29 -21 45 -25 64 -57 141 -65 155
-5 8 -19 35 -30 60 -11 25 -31 59 -44 77 -62 80 -90 247 -49 288 15 14 20 13
58 -18 22 -18 57 -43 77 -55z m1379 -1422 c0 -5 -4 -10 -10 -10 -5 0 -10 5
-10 10 0 6 5 10 10 10 6 0 10 -4 10 -10z m887 -981 c18 -18 3 -49 -23 -49 -26
0 -40 20 -30 45 6 17 37 20 53 4z m-1512 -166 c-7 -17 -8 -17 -15 2 -9 24 -2
41 12 27 6 -6 7 -19 3 -29z m2109 2 c3 -8 1 -15 -4 -15 -6 0 -10 7 -10 15 0 8
2 15 4 15 2 0 6 -7 10 -15z m-104 -122 c0 -8 7 -27 16 -43 12 -19 15 -38 10
-63 -8 -42 -18 -51 -47 -42 -19 6 -38 57 -30 80 2 6 5 17 6 25 7 49 45 86 45
43z m-1953 -59 c-9 -9 -28 6 -21 18 4 6 10 6 17 -1 6 -6 8 -13 4 -17z m1547
-40 c18 -7 23 -64 6 -64 -12 0 -50 37 -50 48 0 20 17 26 44 16z m-190 -71 c4
-5 24 -8 44 -8 31 0 38 -4 40 -23 5 -32 -38 -112 -72 -133 -36 -22 -80 -8 -70
23 4 12 0 18 -11 18 -21 0 -37 44 -25 74 15 41 72 70 94 49z m460 -170 c8 -21
-10 -41 -24 -27 -11 11 -3 44 10 44 4 0 11 -8 14 -17z m382 -37 c1 0 9 -25 18
-55 18 -62 10 -76 -34 -65 -14 3 -40 7 -57 7 -36 1 -45 24 -18 47 8 7 15 18
15 24 0 6 7 22 16 34 11 17 21 21 37 16 12 -3 23 -7 23 -8z m-654 -11 c0 -5
-5 -11 -11 -13 -6 -2 -11 4 -11 13 0 9 5 15 11 13 6 -2 11 -8 11 -13z m-144
-17 c3 -13 -3 -18 -22 -18 -20 0 -26 5 -26 21 0 15 5 20 22 17 13 -2 24 -11
26 -20z m153 -256 c-6 -2 -11 -10 -11 -17 0 -13 -29 -35 -44 -35 -11 0 10 36
34 60 19 19 26 22 29 10 2 -8 -2 -16 -8 -18z m-1909 -7 c-2 -14 -8 -25 -13
-25 -10 0 -12 43 -3 53 13 12 21 -3 16 -28z m1751 -60 c9 -8 17 -20 19 -26 3
-8 12 -7 31 6 27 17 27 17 27 -7 0 -17 -12 -33 -41 -54 -23 -16 -50 -37 -60
-46 -10 -10 -23 -18 -28 -18 -5 0 -19 -13 -31 -30 -28 -40 -60 -39 -90 2 -20
27 -21 35 -11 63 6 17 11 42 11 54 0 18 4 21 20 16 14 -4 22 -1 27 12 4 10 14
23 22 30 22 17 87 16 104 -2z m397 -185 c15 -28 -5 -64 -31 -57 -13 3 -24 -2
-32 -14 -6 -10 -16 -19 -20 -19 -5 0 -29 -22 -54 -50 -70 -78 -107 -59 -68 34
16 38 74 76 118 76 16 0 28 9 35 25 14 30 37 32 52 5z m-1490 -260 c0 -5 -4
-10 -10 -10 -5 0 -10 5 -10 10 0 6 5 10 10 10 6 0 10 -4 10 -10z m1052 -131
c45 -23 65 -54 47 -75 -17 -20 -32 -17 -59 11 -13 14 -29 25 -36 25 -15 0 -34
31 -34 55 0 19 21 15 82 -16z m-593 -14 c13 -14 31 -25 41 -25 10 0 23 -7 30
-15 10 -12 9 -16 -3 -21 -9 -3 -20 -19 -26 -35 -12 -35 -34 -45 -65 -31 -29
13 -43 85 -25 126 15 32 18 32 48 1z m471 -15 c0 -6 -8 -13 -17 -17 -10 -3
-25 -12 -35 -20 -25 -22 -33 2 -8 27 21 21 60 27 60 10z m-674 -256 c-7 -26
-26 -30 -57 -14 -23 13 -25 48 -3 98 l16 37 25 -49 c16 -31 22 -57 19 -72z
m-140 72 c6 -26 -1 -46 -17 -46 -5 0 -9 16 -9 35 0 40 17 47 26 11z m-116 -76
c0 -5 7 -10 15 -10 9 0 27 -12 40 -26 14 -15 25 -22 25 -15 0 6 7 11 15 11 10
0 15 -10 15 -30 0 -30 -13 -40 -25 -20 -4 7 -19 3 -40 -10 l-34 -21 -11 21
c-6 11 -8 36 -4 55 4 23 2 35 -5 35 -6 0 -11 5 -11 10 0 6 5 10 10 10 6 0 10
-4 10 -10z m256 -96 c13 -30 13 -38 2 -45 -20 -13 -26 -11 -38 10 -10 19 1 71
15 71 3 0 13 -16 21 -36z m-62 -149 c6 0 22 -27 36 -60 14 -33 35 -76 47 -95
13 -19 23 -47 23 -61 0 -15 9 -38 20 -52 11 -14 20 -39 20 -56 0 -16 11 -47
25 -67 14 -20 25 -50 25 -66 0 -16 11 -51 25 -78 14 -27 25 -61 25 -75 0 -14
11 -47 24 -73 14 -28 26 -74 29 -116 4 -37 10 -73 15 -80 5 -6 17 -33 27 -61
10 -27 31 -64 48 -81 25 -27 29 -41 33 -99 2 -37 7 -72 12 -78 5 -7 12 -46 15
-88 4 -42 15 -95 27 -120 11 -24 20 -57 20 -73 0 -16 7 -34 16 -41 27 -19 29
-95 5 -143 -12 -23 -21 -47 -21 -54 0 -8 -13 -19 -30 -25 -20 -8 -30 -18 -30
-32 0 -25 -12 -27 -30 -6 -8 10 -10 30 -6 60 7 41 5 46 -17 54 -16 6 -26 20
-30 40 -4 18 -13 31 -22 31 -8 0 -15 5 -15 11 0 11 -17 48 -93 209 -24 52 -50
113 -57 135 -7 22 -21 54 -31 71 -10 17 -25 57 -32 90 -8 33 -22 74 -31 91 -9
18 -16 50 -16 73 0 28 -4 40 -14 40 -8 0 -17 -6 -20 -12 -6 -16 -36 19 -36 42
0 9 -13 43 -29 76 -16 32 -31 82 -34 110 -3 28 -15 77 -27 110 -12 32 -28 93
-36 134 -24 128 -42 203 -58 245 -9 23 -15 73 -16 116 0 86 5 92 65 82 29 -5
40 -1 57 17 l21 23 31 -34 c17 -19 35 -34 40 -34z m1373 -161 c4 -13 -23 -44
-38 -44 -13 0 -22 27 -15 46 7 17 47 16 53 -2z m298 -303 c0 -26 -4 -29 -84
-61 -59 -24 -90 -19 -111 19 -15 28 17 47 100 59 86 13 95 11 95 -17z m-11045
-1246 c9 -25 2 -45 -17 -45 -8 0 -11 5 -8 10 3 6 -2 10 -12 10 -17 0 -34 33
-50 99 -5 22 -2 21 37 -15 23 -21 46 -48 50 -59z m200 -215 c12 -23 6 -40 -14
-40 -8 0 -20 -10 -28 -22 -15 -23 -38 -18 -38 9 0 19 41 72 57 72 7 1 17 -8
23 -19z m114 -131 c15 -25 16 -33 5 -40 -19 -11 -36 6 -41 41 -6 39 13 39 36
-1z m50 -104 c3 -8 1 -15 -4 -15 -6 0 -10 7 -10 15 0 8 2 15 4 15 2 0 6 -7 10
-15z m-16 -181 c12 -8 22 -23 22 -33 0 -10 7 -24 15 -31 8 -7 15 -17 15 -22 0
-5 17 -35 38 -66 21 -31 46 -77 56 -101 9 -24 26 -55 36 -68 17 -22 37 -79 94
-262 22 -72 22 -159 -1 -168 -19 -8 -73 48 -73 75 0 10 -18 43 -40 72 -22 29
-40 58 -40 64 0 5 -8 18 -17 29 -20 21 -70 108 -104 177 -12 25 -42 76 -66
114 -24 37 -48 88 -52 112 -5 24 -14 50 -20 58 -7 8 -9 25 -6 39 6 22 12 24
63 25 34 0 66 -5 80 -14z m927 -484 c4 -6 -5 -10 -20 -10 -15 0 -24 4 -20 10
3 6 12 10 20 10 8 0 17 -4 20 -10z m-14 -173 c-15 -15 -40 -1 -36 20 2 10 4
20 4 22 1 2 10 -4 21 -14 13 -12 17 -22 11 -28z m8768 -255 c45 -22 49 -39 14
-53 -15 -6 -50 -20 -78 -31 -155 -62 -199 -69 -208 -30 -8 36 23 73 86 102 72
34 136 38 186 12z m-8651 -56 c2 -44 0 -57 -10 -54 -7 3 -13 18 -13 34 0 16
-8 36 -19 45 -23 19 -13 41 17 37 19 -3 22 -10 25 -62z m-934 -687 c6 -40 2
-59 -10 -46 -3 3 -8 24 -11 46 -7 54 12 54 21 0z m98 -169 c12 -11 17 -20 11
-20 -5 0 -18 9 -28 20 -10 11 -15 20 -11 20 4 0 16 -9 28 -20z m198 -146 c0
-8 -5 -12 -10 -9 -6 4 -8 11 -5 16 9 14 15 11 15 -7z m65 -82 c6 -4 19 -25 30
-47 10 -22 25 -47 32 -55 41 -48 61 -78 67 -102 3 -16 4 -28 1 -28 -21 0 -71
54 -95 100 -15 30 -44 71 -64 90 -20 19 -36 38 -36 43 0 9 52 9 65 -1z m5731
-862 c-7 -43 -23 -77 -41 -83 -5 -3 -24 -2 -42 0 -26 4 -30 8 -23 22 5 9 11
28 15 44 4 20 11 27 29 27 13 0 29 7 36 15 22 27 33 17 26 -25z m-2826 -436
c0 -16 -16 -49 -32 -68 -5 -6 -22 -31 -38 -56 -16 -25 -53 -70 -81 -100 -28
-30 -64 -77 -80 -105 -28 -49 -38 -108 -20 -119 5 -3 12 -23 15 -43 9 -49 51
-161 74 -194 9 -15 30 -46 46 -70 56 -86 81 -124 86 -129 3 -3 24 -30 46 -60
23 -30 57 -71 76 -90 18 -19 73 -78 121 -131 81 -90 118 -123 297 -269 121
-99 222 -174 330 -244 73 -48 340 -243 350 -256 3 -3 70 -46 150 -95 80 -49
177 -108 215 -132 39 -24 77 -48 85 -53 117 -70 269 -162 322 -197 37 -24 69
-43 71 -43 7 0 118 -68 136 -83 9 -8 34 -23 56 -34 100 -51 141 -75 179 -106
61 -50 260 -157 292 -157 10 0 25 -6 33 -13 9 -7 50 -26 91 -42 41 -15 93 -36
115 -46 119 -52 184 -79 192 -79 4 0 48 -19 96 -42 72 -35 87 -46 85 -63 -3
-18 -9 -20 -68 -17 -36 2 -90 9 -120 17 -30 8 -82 20 -115 28 -33 8 -107 33
-164 56 -57 22 -108 41 -115 41 -6 0 -31 11 -56 24 -25 13 -69 29 -98 36 -29
7 -70 21 -92 31 -21 10 -55 19 -74 19 -25 0 -36 5 -41 19 -4 14 -25 24 -75 36
-39 9 -70 21 -70 26 0 5 -11 11 -25 15 -14 3 -25 9 -25 13 0 13 -172 91 -200
91 -30 0 -33 -31 -5 -60 14 -15 25 -38 25 -53 0 -20 5 -27 20 -27 11 0 20 -7
20 -15 0 -8 4 -15 8 -15 5 0 41 -27 80 -60 53 -44 80 -60 102 -60 26 0 30 -4
30 -26 0 -14 -4 -34 -10 -44 -5 -10 -12 -56 -14 -102 -3 -45 -8 -109 -12 -140
-4 -40 -3 -58 5 -58 6 0 13 10 17 23 6 25 84 79 117 80 12 1 32 -2 45 -7 15
-5 22 -3 22 6 0 14 47 87 79 125 15 18 113 83 125 83 2 0 -21 -26 -51 -57 -30
-32 -60 -69 -68 -83 -7 -14 -25 -35 -39 -47 -14 -13 -26 -27 -26 -33 0 -5 -6
-10 -14 -10 -21 0 -30 -20 -17 -33 6 -6 11 -18 11 -27 0 -9 12 -27 26 -41 23
-21 25 -29 21 -79 -10 -105 -30 -159 -44 -114 -3 11 -21 32 -40 48 -30 26 -36
27 -49 14 -30 -29 -20 -178 17 -250 5 -10 6 -18 1 -18 -14 0 -52 31 -52 43 0
7 -15 24 -34 39 -31 25 -86 108 -86 130 0 6 -7 24 -15 41 -16 35 -34 102 -42
157 -3 23 -18 47 -40 69 -34 31 -35 36 -30 82 3 27 13 59 22 71 8 13 15 39 15
59 0 34 -3 38 -32 44 -18 4 -45 16 -59 26 -14 10 -51 22 -82 27 -52 8 -58 7
-99 -20 -38 -26 -55 -47 -57 -71 -1 -11 42 -47 132 -107 88 -59 110 -89 147
-195 38 -109 61 -205 70 -303 13 -135 13 -139 -10 -145 -11 -3 -20 -2 -21 1 0
4 -3 36 -5 72 -3 36 -11 88 -19 117 -8 28 -15 60 -15 71 0 47 -79 202 -133
263 -38 41 -163 119 -192 119 -14 0 7 -74 30 -104 48 -65 79 -144 64 -167 -6
-10 -9 -11 -9 -2 0 7 -17 30 -37 51 -30 31 -44 38 -70 36 -43 -3 -51 -9 -59
-49 -13 -73 -44 -41 -44 46 0 40 7 66 31 108 17 31 38 64 46 73 8 9 12 22 8
27 -10 17 -43 13 -50 -6 -3 -10 -20 -27 -38 -39 l-32 -20 -60 30 c-33 16 -62
33 -63 38 -6 14 -22 -2 -22 -22 0 -18 22 -77 41 -110 5 -8 16 -31 24 -50 21
-47 92 -151 201 -295 49 -66 120 -165 157 -220 37 -55 85 -125 106 -155 22
-30 56 -82 77 -115 21 -33 42 -61 46 -63 4 -2 8 -8 8 -13 0 -4 17 -34 38 -66
146 -219 222 -354 222 -389 -1 -16 -5 -14 -26 11 -14 17 -36 41 -48 55 -68 76
-269 367 -376 545 -30 50 -69 112 -88 139 -19 27 -57 83 -84 123 -27 40 -66
93 -87 117 -21 24 -49 61 -62 82 -13 22 -30 47 -39 57 -49 57 -128 222 -142
294 -6 32 -19 89 -30 128 -11 38 -22 103 -25 144 -5 53 -11 79 -25 93 -10 10
-18 21 -18 26 0 34 -99 165 -142 188 -39 20 -35 42 16 90 24 22 46 49 49 60 4
17 5 16 6 -3 0 -12 10 -42 20 -65 11 -24 35 -81 52 -128 47 -123 50 -124 93
-46 20 35 45 68 56 71 11 4 20 13 20 21 0 8 10 14 25 14 23 0 24 2 15 20 -6
11 -17 20 -24 20 -7 0 -23 12 -37 26 -13 14 -42 35 -64 46 -38 20 -105 84
-105 101 0 5 -9 6 -19 2 -11 -3 -22 -1 -26 5 -4 6 -15 8 -26 5 -14 -5 -19 -2
-19 14 0 11 5 23 10 26 6 3 10 25 10 47 0 23 6 49 14 57 14 16 12 28 -18 79
-8 13 -45 46 -82 73 -38 28 -92 71 -120 97 -70 66 -113 95 -130 88 -9 -4 -19
4 -27 22 -7 15 -21 35 -32 44 -21 18 -78 33 -109 29 -11 -2 -15 2 -12 8 4 6 2
19 -3 30 -8 14 -7 20 4 25 18 7 20 26 3 26 -7 0 -31 18 -52 40 -35 36 -43 40
-73 34 -28 -5 -32 -4 -27 10 3 9 11 16 17 16 6 0 -2 13 -18 30 -17 16 -37 37
-46 47 -9 10 -26 25 -39 33 -48 31 -89 72 -113 113 -23 39 -116 129 -216 207
-26 21 -55 58 -72 92 -16 32 -59 93 -97 137 -37 44 -78 99 -92 122 -14 23 -40
65 -59 93 -18 28 -54 89 -79 136 -25 47 -56 99 -69 116 -35 47 -47 88 -32 116
22 43 240 328 294 384 47 49 56 54 74 44 12 -6 21 -18 21 -26z m1002 -1591 c2
-5 41 -33 88 -63 47 -30 102 -68 122 -85 20 -16 55 -46 79 -65 30 -25 38 -36
26 -38 -37 -7 -228 122 -327 223 -31 31 -32 35 -13 35 12 0 23 -3 25 -7z m395
-299 c-3 -3 -12 -4 -19 -1 -8 3 -5 6 6 6 11 1 17 -2 13 -5z m-401 -286 c4 -13
27 -49 51 -80 46 -60 77 -121 66 -132 -10 -10 -61 -7 -68 4 -8 13 -35 2 -66
-27 -17 -16 -43 -26 -79 -30 l-53 -6 19 33 c10 17 32 42 48 54 15 11 44 36 63
54 31 28 35 37 29 64 -4 18 -13 36 -21 41 -16 9 -21 47 -6 47 5 0 13 -10 17
-22z m-2366 -49 c0 -10 -4 -19 -10 -19 -5 0 -10 12 -10 26 0 14 4 23 10 19 6
-3 10 -15 10 -26z m2360 -324 c0 -8 11 -22 25 -31 14 -9 30 -25 36 -35 8 -15
3 -22 -30 -38 -37 -19 -39 -19 -55 -2 -19 21 -21 86 -3 106 16 19 27 19 27 0z
m2395 -585 c3 -5 21 -10 38 -10 43 0 78 -10 72 -21 -3 -4 -11 -6 -19 -3 -7 3
-25 0 -40 -6 -32 -12 -60 -1 -76 30 -8 16 -8 20 4 20 8 0 18 -4 21 -10z m-550
-40 c0 -17 -7 -26 -25 -31 -16 -4 -19 -7 -7 -8 22 -1 24 -56 1 -65 -11 -4 -13
-10 -6 -22 19 -34 -7 -84 -44 -84 -13 0 -40 -9 -60 -21 -50 -28 -64 -20 -64
36 0 36 8 58 34 98 50 74 70 95 100 103 14 3 29 10 32 16 11 18 39 3 39 -22z
m1153 8 c7 -7 12 -31 12 -53 0 -31 -6 -47 -24 -64 -23 -21 -25 -22 -49 -7 -31
21 -43 81 -21 113 16 25 62 31 82 11z m-455 -15 c-7 -2 -19 -2 -25 0 -7 3 -2
5 12 5 14 0 19 -2 13 -5z m1567 -13 c6 -11 20 -20 32 -20 29 0 58 -28 58 -55
0 -58 -75 -98 -102 -55 -7 11 -18 20 -25 20 -7 0 -13 5 -13 10 0 17 -43 11
-78 -10 -39 -24 -55 -25 -72 -5 -7 8 -21 15 -31 15 -10 0 -23 9 -29 20 -10 19
-8 20 33 20 23 0 48 -5 54 -11 16 -16 62 1 76 28 12 22 63 63 79 63 4 0 12 -9
18 -20z m-1418 -21 c29 -11 70 -32 90 -46 22 -15 44 -23 54 -19 11 4 18 0 21
-14 3 -11 9 -20 14 -20 5 0 9 -5 9 -12 0 -9 -3 -9 -12 0 -7 7 -20 12 -30 12
-10 0 -18 3 -18 8 0 4 -20 8 -45 8 -32 1 -53 9 -75 28 -17 14 -42 26 -55 26
-12 0 -28 7 -35 15 -7 8 -19 15 -26 15 -8 0 -14 5 -14 10 0 17 66 11 122 -11z
m1108 -49 c0 -16 -11 -41 -25 -57 l-24 -28 -1 37 c0 20 5 40 10 43 6 4 7 11 4
17 -7 11 16 29 28 22 4 -3 8 -18 8 -34z m-1720 -94 c-6 -19 -18 -40 -26 -46
-7 -7 -14 -23 -14 -37 0 -20 -4 -24 -22 -21 -36 5 -35 42 1 76 17 16 31 34 31
40 0 6 8 18 17 28 22 22 28 5 13 -40z m1647 -38 c-3 -8 -6 -5 -6 6 -1 11 2 17
5 13 3 -3 4 -12 1 -19z m-1837 -69 c0 -14 -36 -46 -60 -54 -32 -10 -247 -234
-263 -275 -53 -131 -57 -146 -57 -233 0 -51 -4 -87 -10 -87 -5 0 -10 11 -10
24 0 25 -56 152 -71 162 -14 8 -10 70 7 111 39 91 47 109 57 128 6 11 24 46
41 78 16 31 34 57 38 57 15 0 8 -40 -15 -88 -33 -68 -61 -168 -53 -188 5 -13
17 3 46 64 22 46 40 85 40 88 0 14 57 84 133 164 l85 89 46 -15 c25 -9 46 -20
46 -25z m342 -14 c-2 -19 -8 -35 -13 -35 -5 0 -9 16 -9 35 0 22 5 35 13 35 9
0 12 -11 9 -35z m675 -27 c-3 -8 -6 -5 -6 6 -1 11 2 17 5 13 3 -3 4 -12 1 -19z
m1103 2 c0 -5 -5 -10 -11 -10 -5 0 -7 5 -4 10 3 6 8 10 11 10 2 0 4 -4 4 -10z
m-3713 -102 c-3 -8 -6 -5 -6 6 -1 11 2 17 5 13 3 -3 4 -12 1 -19z m63 -76 c0
-7 -4 -10 -10 -7 -5 3 -10 12 -10 20 0 7 -7 15 -15 19 -8 3 -15 13 -15 23 0
14 6 11 25 -12 13 -16 24 -36 25 -43z m2550 -83 c3 -57 8 -109 12 -115 4 -6 1
-20 -7 -30 -17 -23 -17 -25 -21 96 -1 52 -4 110 -6 128 -3 20 0 31 6 29 7 -2
13 -48 16 -108z m-2463 -12 c25 -40 24 -67 -1 -31 -8 10 -28 35 -45 54 -40 45
-44 85 -5 43 15 -15 38 -45 51 -66z m653 -99 c0 -18 -2 -20 -9 -8 -6 8 -7 18
-5 22 9 14 14 9 14 -14z m80 12 c0 -5 -4 -10 -10 -10 -5 0 -10 5 -10 10 0 6 5
10 10 10 6 0 10 -4 10 -10z m-660 -10 c0 -5 -2 -10 -4 -10 -3 0 -8 5 -11 10
-3 6 -1 10 4 10 6 0 11 -4 11 -10z m737 -76 c-3 -3 -12 -4 -19 -1 -8 3 -5 6 6
6 11 1 17 -2 13 -5z m1683 -130 c0 -14 -4 -23 -10 -19 -5 3 -10 15 -10 26 0
10 5 19 10 19 6 0 10 -12 10 -26z m1 -131 c-9 -16 -10 -14 -11 12 0 21 3 26
11 18 8 -8 8 -16 0 -30z m1279 -57 c12 -32 46 -43 69 -22 10 9 23 16 30 16 18
0 83 -48 104 -76 l18 -24 -35 0 c-19 0 -38 5 -41 10 -10 17 -25 11 -37 -15 -6
-13 -23 -27 -37 -30 -16 -4 -32 -18 -41 -38 -10 -21 -25 -35 -47 -41 -28 -7
-33 -14 -33 -38 0 -43 -40 -79 -79 -72 -19 4 -37 1 -47 -7 -14 -11 -18 -11
-29 4 -11 15 -13 14 -24 -9 -11 -26 -12 -26 -32 -8 -16 14 -22 15 -28 5 -6 -9
-26 7 -70 56 -74 82 -78 108 -29 184 27 41 38 49 63 49 16 0 61 16 98 34 37
19 76 32 85 30 9 -3 35 -1 57 5 63 14 75 13 85 -13z m-1250 -63 c0 -18 -3 -33
-6 -33 -15 0 -33 37 -34 69 0 33 0 34 20 16 12 -11 20 -31 20 -52z m1365 -144
c-8 -12 -32 -12 -40 1 -11 18 5 31 26 20 11 -6 17 -15 14 -21z m-10482 -356
c-7 -2 -21 -2 -30 0 -10 3 -4 5 12 5 17 0 24 -2 18 -5z m-249 -242 c3 -4 3
-11 0 -14 -8 -8 -34 3 -34 14 0 11 27 12 34 0z m-273 -121 c28 0 23 -23 -11
-48 -34 -25 -72 -28 -89 -8 -25 30 23 72 67 60 8 -2 22 -4 33 -4z m-56 -100
c0 -18 -16 -22 -35 -10 -13 9 -13 11 0 20 19 12 35 8 35 -10z m-64 -327 c-9
-16 -10 -14 -11 12 0 21 3 26 11 18 8 -8 8 -16 0 -30z m9888 -45 c0 -62 -2
-69 -11 -45 -9 25 -3 117 8 117 2 0 4 -33 3 -72z m-9698 0 c20 -43 24 -68 22
-133 -2 -102 -22 -169 -52 -173 -11 -2 -21 -8 -21 -13 0 -17 28 -21 65 -9 70
23 130 -14 106 -66 -6 -13 -19 -24 -28 -24 -10 0 -38 -7 -62 -16 -67 -23 -117
-11 -166 40 -34 36 -65 100 -65 136 0 5 11 10 23 10 30 0 87 -28 87 -43 0 -8
3 -8 11 0 7 7 12 46 11 98 0 47 4 87 9 90 12 8 -1 35 -16 35 -16 0 -25 22 -25
64 0 39 15 56 51 56 22 0 30 -8 50 -52z m889 -89 c0 -5 -4 -9 -10 -9 -5 0 -10
7 -10 16 0 8 5 12 10 9 6 -3 10 -10 10 -16z m8844 -116 c59 -490 75 -683 83
-989 6 -216 -2 -317 -18 -224 -4 25 -8 81 -8 124 -1 44 -5 105 -11 135 -5 31
-16 146 -25 256 -8 110 -20 247 -25 305 -6 58 -10 133 -10 165 0 33 -5 89 -10
125 -9 65 -4 150 10 150 5 0 11 -21 14 -47z m-9969 27 c4 -6 -5 -10 -20 -10
-15 0 -24 4 -20 10 3 6 12 10 20 10 8 0 17 -4 20 -10z m-215 -24 c0 -15 -14
-35 -21 -30 -15 9 -10 34 6 34 8 0 15 -2 15 -4z m11515 -312 c47 -42 85 -80
85 -85 0 -4 -16 -25 -35 -46 -19 -20 -46 -60 -61 -88 -29 -53 -148 -224 -237
-340 -30 -38 -80 -110 -112 -160 -32 -49 -79 -117 -104 -150 -50 -67 -319
-345 -333 -345 -5 0 -15 -6 -22 -12 -8 -7 -46 -39 -85 -72 -39 -32 -71 -62
-71 -67 0 -5 -9 -13 -20 -19 -18 -10 -19 -8 -10 14 5 14 21 44 36 67 14 23 71
130 125 236 55 107 134 247 177 311 116 174 116 174 127 191 13 20 52 84 155
251 169 273 254 390 286 390 7 0 52 -34 99 -76z m-12385 -228 c0 -8 3 -21 6
-29 7 -19 -25 -30 -61 -21 -34 8 -31 45 5 55 40 11 50 10 50 -5z m320 -100 c0
-8 -3 -22 -6 -31 -9 -23 -23 0 -17 26 6 22 23 26 23 5z m70 -76 c0 -5 -8 -10
-17 -10 -15 0 -16 2 -3 10 19 12 20 12 20 0z m11870 -168 c0 -4 -9 -15 -20
-25 -19 -16 -20 -16 -20 8 0 18 5 25 20 25 11 0 20 -3 20 -8z m0 -167 c0 -8 6
-15 14 -15 20 0 59 -51 47 -63 -13 -13 -50 10 -61 39 -5 13 -16 24 -25 24 -16
0 -20 12 -8 23 12 13 33 7 33 -8z m-126 -14 c9 -14 -4 -41 -20 -41 -8 0 -14 8
-14 18 0 29 22 43 34 23z m64 -75 c23 -63 -18 -93 -50 -38 -16 26 -16 31 -2
50 21 31 38 27 52 -12z m-13398 -268 c0 -13 -17 -47 -38 -77 -57 -82 -85 -93
-85 -32 0 20 14 46 42 80 46 55 81 67 81 29z m-40 -183 c0 -21 -41 -65 -60
-65 -11 0 -24 -9 -30 -20 -16 -30 -33 -13 -27 26 6 34 31 68 57 76 23 7 60 -3
60 -17z m13904 -401 c20 -8 22 -91 4 -140 -9 -27 -9 -38 2 -59 7 -14 20 -25
28 -25 13 0 47 -27 101 -81 14 -14 41 -34 59 -45 32 -19 43 -44 19 -44 -8 0
-22 -9 -32 -20 -21 -24 -38 -25 -55 -6 -6 8 -18 12 -26 9 -17 -6 -84 53 -84
74 0 8 -13 19 -30 24 -23 9 -30 17 -30 37 0 22 -4 18 -24 -25 -14 -28 -36 -59
-51 -69 -20 -13 -26 -23 -22 -43 3 -14 1 -36 -4 -49 -8 -20 -14 -23 -37 -18
-43 11 -59 9 -79 -11 -19 -20 -135 -155 -183 -213 -69 -84 -99 -118 -162 -182
-38 -37 -68 -74 -68 -81 0 -11 145 -115 212 -152 10 -5 18 -13 18 -17 0 -5 4
-8 10 -8 35 0 739 -596 810 -687 39 -50 14 -90 -44 -70 -33 11 -230 166 -432
338 -67 57 -152 129 -189 159 -84 69 -94 77 -292 244 -89 75 -167 136 -172
136 -16 0 -40 41 -33 59 3 9 35 51 71 95 36 43 102 122 146 175 110 132 172
212 235 306 29 44 81 114 114 155 34 41 77 98 96 125 39 56 90 115 101 115 4
0 14 -3 23 -6z m-4060 -30 c24 -35 10 -76 -31 -89 -56 -19 -112 -64 -153 -125
-49 -72 -69 -85 -98 -64 -34 24 -47 88 -27 138 9 22 24 49 33 59 26 29 136 87
184 96 68 14 75 13 92 -15z m7695 -50 c12 -15 21 -33 21 -40 0 -29 -102 -32
-108 -3 -3 19 35 69 53 69 7 0 23 -12 34 -26z m-130 -71 c-10 -27 0 -42 28
-43 6 0 20 -15 31 -33 18 -31 18 -35 3 -74 -9 -23 -24 -50 -34 -61 -10 -11
-22 -33 -26 -48 -5 -20 -14 -28 -26 -27 -11 1 -32 -9 -48 -23 -39 -32 -56 -30
-95 11 -35 39 -36 43 -23 64 6 9 5 23 -1 37 -13 28 4 54 34 54 16 0 18 3 10
13 -28 33 32 120 113 165 29 16 47 -2 34 -35z m-7571 -46 c4 -45 -17 -50 -43
-11 -13 20 -14 28 -4 40 21 26 44 12 47 -29z m7686 -158 c-8 -14 -24 -10 -24
6 0 9 6 12 15 9 8 -4 12 -10 9 -15z m-3641 -41 c2 -7 2 -21 -1 -30 -3 -14 -7
-15 -23 -5 -25 16 -25 47 0 47 11 0 21 -6 24 -12z m193 -119 c60 -2 114 0 119
3 6 4 17 3 25 -2 8 -5 32 -7 53 -3 30 4 45 0 77 -22 45 -31 51 -51 18 -64 -13
-5 -115 -14 -228 -20 -113 -6 -224 -13 -248 -17 -71 -10 -108 1 -127 42 -23
49 -17 68 23 70 17 1 44 10 59 20 46 31 57 33 89 14 24 -14 59 -19 140 -21z
m-491 -129 c3 -5 -1 -10 -10 -10 -9 0 -13 5 -10 10 3 6 8 10 10 10 2 0 7 -4
10 -10z m92 -45 c-6 -16 -29 -12 -41 8 -16 25 14 44 32 20 7 -10 11 -22 9 -28z
m946 -16 c37 -20 147 -140 153 -168 4 -14 10 -30 14 -36 5 -5 10 -21 12 -35 4
-22 5 -23 13 -7 4 11 18 29 31 42 19 19 26 21 46 11 35 -18 26 -63 -43 -201
-70 -142 -131 -242 -217 -356 -35 -46 -87 -120 -116 -164 -29 -44 -68 -90 -86
-103 -30 -20 -35 -21 -50 -7 -9 8 -31 15 -49 15 -35 0 -94 27 -128 59 -12 12
-25 21 -28 21 -17 0 -139 120 -156 152 -10 21 -29 43 -41 49 -12 7 -53 45 -91
85 -38 41 -76 74 -83 74 -7 0 -18 9 -24 20 -6 11 -17 20 -25 20 -8 0 -20 8
-27 18 -19 24 -74 62 -93 62 -18 0 -51 18 -82 44 -13 11 -30 16 -43 13 -14 -4
-20 0 -20 11 0 8 -5 31 -12 49 -9 26 -10 36 -1 41 7 4 17 20 22 36 13 31 34
30 39 -2 4 -25 22 -20 22 5 0 27 49 82 91 103 21 11 39 24 39 29 0 5 16 26 36
46 34 35 38 37 82 30 59 -8 73 -26 71 -90 -2 -53 13 -180 30 -255 5 -25 15
-73 21 -108 6 -34 22 -83 35 -109 l23 -47 7 50 c3 27 11 61 17 77 6 15 8 42 5
60 -3 20 0 40 9 52 9 12 14 46 14 95 0 66 3 80 21 96 28 25 39 56 27 72 -7 8
-7 17 1 26 10 12 8 17 -8 26 -42 22 -22 57 28 50 7 -1 26 4 42 11 25 10 32 9
49 -6 11 -10 22 -34 25 -54 4 -20 13 -52 20 -71 8 -19 14 -52 14 -74 -1 -21 4
-42 10 -45 13 -8 31 -84 38 -158 3 -29 11 -57 19 -64 8 -7 14 -30 14 -57 0
-55 28 -149 47 -156 7 -3 13 0 13 6 0 6 7 20 17 30 22 25 19 141 -6 184 -10
17 -21 52 -26 79 -4 27 -14 66 -22 87 -15 37 -14 39 8 58 13 10 30 19 38 20
21 0 51 30 51 52 0 21 2 21 -39 7 -17 -6 -31 -15 -31 -20 0 -5 -10 -13 -22
-18 -30 -11 -47 18 -48 81 0 45 2 49 41 73 30 20 44 23 54 15 10 -8 14 -5 19
15 4 15 19 31 39 40 17 9 43 22 56 29 24 14 44 11 94 -15z m-1094 -5 c-14 -18
-24 -11 -15 11 3 9 11 13 16 10 8 -5 7 -11 -1 -21z m-13988 -137 c-17 -17 -24
-1 -10 25 12 21 14 21 17 4 2 -10 -1 -23 -7 -29z m13934 -67 c3 -5 1 -10 -4
-10 -6 0 -11 5 -11 10 0 6 2 10 4 10 3 0 8 -4 11 -10z m-14335 -226 c0 -8 -7
-14 -15 -14 -8 0 -15 -7 -15 -15 0 -10 10 -15 28 -15 34 0 49 10 53 35 3 13
14 21 32 23 23 3 27 0 27 -22 0 -14 -8 -34 -17 -44 -10 -9 -26 -30 -36 -45 -9
-14 -28 -29 -42 -33 -22 -5 -25 -12 -25 -50 0 -49 1 -48 -34 -34 -21 7 -26 6
-26 -5 0 -8 5 -15 10 -15 12 0 14 -47 2 -53 -11 -7 -45 24 -61 55 -12 24 -12
33 2 65 8 21 18 46 21 56 3 10 15 17 31 17 27 0 32 18 15 51 -8 13 -7 19 0 19
6 0 15 11 22 25 11 25 28 25 28 -1z m11784 -130 c28 -11 19 -48 -14 -61 -25
-10 -32 -9 -39 5 -5 10 -5 27 0 40 8 22 24 27 53 16z m6315 -80 c-12 -13 -26
-24 -31 -24 -18 0 -7 34 20 59 24 23 27 24 30 8 2 -11 -7 -30 -19 -43z m289
46 c27 -25 28 -36 3 -50 -44 -23 -50 -38 -45 -103 l5 -62 -51 -32 c-61 -38
-71 -40 -88 -13 -7 11 -21 20 -32 20 -11 0 -20 5 -20 10 0 6 -11 10 -24 10
-38 0 -41 32 -10 82 15 24 38 53 51 65 12 12 23 27 23 33 0 14 62 41 115 50
22 4 43 8 46 9 3 0 15 -8 27 -19z m-7348 -10 c10 -19 11 -19 56 0 25 11 57 20
71 20 34 0 133 -29 133 -40 0 -4 -11 -33 -26 -63 -21 -48 -33 -60 -81 -87 -31
-16 -64 -30 -74 -30 -9 0 -31 16 -49 36 -25 29 -31 43 -27 68 6 39 -8 66 -33
66 -13 0 -20 7 -20 18 0 36 33 44 50 12z m803 -184 c-20 -28 -53 -35 -53 -12
0 8 15 26 33 40 25 20 33 22 35 11 2 -8 -5 -26 -15 -39z m-520 -16 c-10 -12
-30 -20 -48 -20 l-30 0 35 19 c48 25 64 26 43 1z m1535 -117 c3 -20 10 -23 43
-23 22 0 51 -7 64 -16 17 -11 36 -14 58 -10 26 5 38 2 52 -14 10 -11 30 -20
45 -20 15 0 33 -7 40 -15 7 -8 23 -15 35 -15 53 0 86 -13 100 -40 11 -21 23
-29 56 -33 24 -3 52 -16 68 -30 22 -21 84 -47 114 -47 12 0 8 56 -8 94 -10 23
-22 36 -33 36 -10 0 -29 11 -42 25 -19 20 -22 30 -14 43 15 23 67 27 84 8 7
-9 17 -16 22 -16 6 0 25 -12 43 -27 29 -25 66 -50 117 -78 10 -5 21 -24 24
-42 3 -18 12 -37 20 -44 18 -15 18 -43 -1 -59 -8 -7 -15 -25 -15 -41 0 -16 -4
-29 -10 -29 -5 0 -10 5 -10 12 0 25 -43 58 -75 58 -32 0 -32 -1 -39 -60 -8
-71 -4 -80 68 -148 31 -29 60 -62 66 -72 6 -11 26 -22 45 -26 19 -3 35 -12 35
-19 0 -8 11 -26 24 -42 36 -43 58 -92 54 -121 -2 -22 -9 -28 -33 -30 -44 -5
-51 -18 -16 -30 17 -6 31 -17 31 -23 0 -16 40 -59 55 -59 6 0 31 -21 55 -46
25 -26 59 -52 77 -60 27 -12 32 -20 35 -51 3 -33 6 -38 28 -39 47 -1 50 -4 50
-38 0 -28 -4 -35 -25 -40 -20 -5 -25 -13 -25 -36 0 -17 5 -30 10 -30 6 0 1 -9
-10 -20 -24 -24 -91 -27 -110 -5 -7 8 -21 15 -31 15 -11 0 -19 4 -19 9 0 5
-25 12 -55 16 -30 3 -55 11 -55 16 0 5 -9 9 -19 9 -17 0 -20 -8 -23 -52 l-3
-53 -70 -9 c-38 -4 -90 -14 -115 -21 -44 -12 -45 -13 -48 -58 -2 -32 -8 -47
-17 -47 -7 0 -15 -6 -18 -12 -4 -10 -7 -10 -18 0 -7 7 -38 12 -71 12 -49 0
-63 4 -86 25 -15 14 -31 25 -36 25 -15 0 -56 42 -56 57 0 7 -18 29 -40 49 -31
28 -39 41 -34 59 4 16 -1 29 -16 43 -12 11 -27 25 -33 32 -7 7 -30 31 -53 55
-22 23 -50 46 -62 49 -12 4 -29 21 -37 37 -9 16 -28 37 -43 46 -15 9 -46 34
-69 55 -32 29 -51 38 -78 38 -19 0 -35 -4 -35 -10 0 -5 -11 -10 -25 -10 -14 0
-25 4 -25 8 0 5 -18 18 -40 31 -22 12 -40 29 -40 37 0 8 -12 20 -26 26 -23 11
-25 17 -20 47 8 51 20 57 53 27 32 -30 73 -35 73 -8 0 9 8 38 17 64 16 46 18
48 65 54 64 9 65 32 1 36 l-48 3 -3 45 c-2 24 -8 51 -14 58 -12 13 -22 60 -38
169 -5 35 -14 72 -20 82 -18 35 -12 67 15 79 24 11 25 15 25 105 0 52 3 97 7
101 4 4 34 6 68 4 54 -3 60 -5 63 -25z m-13215 -460 c-3 -7 -9 -13 -14 -13
-11 0 -12 34 -2 43 9 10 22 -13 16 -30z m18461 -60 c37 -32 33 -56 -14 -87
-58 -38 -58 -73 1 -129 43 -42 44 -65 1 -43 -25 13 -29 13 -52 -9 -14 -13 -43
-27 -66 -31 -37 -5 -45 -3 -78 26 -20 18 -48 33 -61 33 -81 0 -36 119 54 146
25 7 48 23 59 39 9 14 32 40 51 58 39 35 62 34 105 -3z m-18544 -117 c0 -8 -4
-17 -9 -21 -12 -7 -24 12 -16 25 9 15 25 12 25 -4z m12534 -132 c20 -8 11 -24
-15 -24 -19 0 -25 11 -12 23 8 8 8 8 27 1z m6086 -59 c0 -15 -21 -12 -30 5
-11 20 -10 21 9 10 12 -6 21 -13 21 -15z m-6004 7 c7 -4 9 -21 6 -40 -6 -41
-44 -64 -67 -41 -11 12 -11 20 2 52 15 36 34 46 59 29z m1769 -32 c3 -6 -4
-10 -17 -10 -18 0 -20 2 -8 10 19 12 18 12 25 0z m-14505 -42 c-1 -44 -18 -78
-39 -78 -9 0 -11 12 -6 43 10 64 15 77 31 77 10 0 14 -12 14 -42z m12790 -33
c10 -12 10 -15 -4 -15 -9 0 -16 7 -16 15 0 8 2 15 4 15 2 0 9 -7 16 -15z
m-140 -13 c0 -4 -9 -22 -20 -39 -13 -22 -25 -31 -35 -27 -22 9 -19 27 10 58
22 24 45 28 45 8z m-12490 -171 c8 -16 6 -21 -10 -26 -27 -9 -39 1 -33 25 7
25 29 26 43 1z m18239 -168 c-5 -34 11 -68 39 -84 37 -21 49 -67 23 -89 -26
-22 -61 -84 -61 -109 0 -28 35 -28 50 -1 12 22 36 27 42 8 3 -7 -3 -26 -13
-41 -9 -16 -14 -37 -12 -48 4 -13 -2 -21 -21 -29 -15 -5 -29 -16 -32 -24 -12
-31 -46 -26 -86 15 -21 21 -44 39 -51 39 -7 0 -21 3 -33 6 -15 4 -23 -1 -32
-20 -10 -23 -18 -26 -61 -26 l-49 0 -4 42 c-4 42 13 95 36 110 6 4 28 8 49 8
42 0 51 22 17 40 -16 8 -20 21 -20 57 0 43 4 50 55 98 44 42 61 52 91 53 20 1
39 4 42 7 12 12 33 4 31 -12z m-5020 -156 c-5 -17 -6 -34 -3 -38 9 -15 -75
-104 -121 -129 l-43 -23 -33 20 c-27 16 -34 26 -32 48 1 15 11 38 23 50 11 12
20 26 20 32 0 16 89 81 121 88 16 4 29 13 29 21 0 10 9 5 24 -12 19 -23 22
-33 15 -57z m-13489 -74 c0 -11 -6 -10 -29 3 -27 16 -28 19 -13 30 14 11 19
10 30 -3 6 -9 12 -23 12 -30z m13600 -32 c0 -12 -30 -22 -43 -14 -7 4 -3 9 9
14 26 10 34 10 34 0z m28 -83 c-3 -20 1 -42 10 -56 13 -19 13 -27 2 -47 -17
-31 -27 -31 -51 -2 -24 29 -24 53 2 71 16 11 20 21 15 40 -5 20 -3 26 10 26
13 0 15 -7 12 -32z m-1466 -25 c26 -31 28 -62 5 -78 -44 -31 -73 -14 -69 39 4
53 35 72 64 39z m6224 -65 c-20 -11 -44 1 -25 12 6 5 19 6 27 3 12 -5 12 -7
-2 -15z m-123 -48 c4 -3 -1 -13 -10 -22 -22 -18 -83 -6 -83 17 0 23 69 27 93
5z m-77 -162 c-13 -18 -24 -42 -23 -53 1 -13 -3 -19 -13 -17 -8 2 -35 4 -60 3
-25 0 -53 2 -63 5 -16 5 -14 9 14 30 18 13 38 24 43 24 6 0 36 16 66 35 63 39
78 28 36 -27z m-4006 -63 c7 -8 21 -15 32 -15 11 0 41 -7 69 -16 50 -17 57
-34 13 -34 -24 0 -32 -14 -14 -25 6 -3 10 -17 10 -31 0 -13 4 -24 10 -24 5 0
20 -19 34 -42 14 -24 39 -52 56 -63 20 -13 30 -28 30 -44 0 -20 -3 -22 -12
-13 -7 7 -20 12 -29 12 -9 0 -23 10 -32 23 -29 43 -62 75 -82 79 -13 2 -22 13
-25 32 -3 16 -12 32 -21 35 -26 10 -139 114 -139 128 0 19 84 17 100 -2z
m3686 -20 c4 -8 13 -15 20 -15 8 0 17 7 20 15 10 25 61 19 69 -7 4 -13 19 -35
32 -50 20 -20 24 -34 20 -55 -11 -54 -27 -83 -52 -95 -20 -9 -25 -18 -25 -48
0 -41 -30 -92 -72 -123 -24 -18 -31 -19 -74 -7 -41 12 -53 11 -101 -5 -37 -13
-59 -27 -69 -44 -22 -41 -53 -73 -63 -67 -5 4 -12 19 -15 34 -5 21 -12 27 -34
27 -15 0 -33 -7 -40 -17 -7 -10 -26 -18 -42 -18 -28 0 -29 1 -18 31 6 17 21
35 34 41 13 6 24 15 24 20 0 4 5 8 11 8 6 0 49 38 96 85 47 47 87 85 90 85 11
0 34 36 72 116 37 75 62 101 99 103 7 1 15 -6 18 -14z m-3821 -89 c65 -28 33
-57 -36 -34 -39 13 -41 15 -25 31 21 21 18 20 61 3z m142 -83 c2 -6 -3 -17
-12 -25 -24 -20 -38 -35 -62 -65 -12 -15 -31 -39 -42 -53 l-19 -25 -12 29 c-9
25 -7 38 9 75 16 37 26 47 53 54 18 5 37 13 43 18 12 12 37 8 42 -8z m407
-129 c23 -9 20 -23 -4 -17 -11 3 -20 9 -20 14 0 11 3 11 24 3z m-187 -47 c-13
-29 -27 -36 -27 -13 0 15 29 50 36 43 2 -2 -2 -15 -9 -30z m-362 -7 c3 -5 1
-10 -4 -10 -6 0 -11 5 -11 10 0 6 2 10 4 10 3 0 8 -4 11 -10z m915 -91 c0 -5
-16 -9 -35 -9 -34 0 -48 14 -23 22 18 6 58 -3 58 -13z m-1562 -33 c4 -33 -51
-122 -56 -92 -2 10 1 23 7 29 6 6 11 23 11 38 0 60 32 80 38 25z m3992 -17 c0
-6 -11 -20 -26 -31 -24 -19 -24 -21 -8 -39 15 -17 15 -18 -10 -25 -35 -8 -56
1 -56 26 0 11 -6 29 -12 40 -11 17 -10 22 2 30 21 14 110 13 110 -1z m-2515
-29 c4 -6 13 -5 26 3 16 10 25 9 50 -5 17 -10 36 -18 43 -18 6 0 22 -7 35 -16
l23 -16 -24 -12 c-12 -6 -24 -20 -27 -31 -5 -28 -32 -66 -42 -59 -5 3 -9 21
-9 40 0 29 -3 34 -25 34 -13 0 -29 8 -34 18 -6 9 -11 12 -11 5 0 -6 -13 -14
-30 -18 -21 -5 -30 -13 -30 -26 0 -11 -7 -19 -16 -19 -12 0 -15 6 -9 23 3 12
9 33 12 47 10 46 52 76 68 50z m1114 -90 c11 -66 28 -90 63 -90 27 0 21 -25
-9 -39 -16 -8 -35 -17 -43 -21 -21 -10 -25 -41 -6 -52 14 -8 12 -13 -13 -39
-25 -25 -31 -40 -36 -97 -8 -80 -29 -127 -71 -159 l-32 -24 -31 31 c-37 37
-38 56 -10 113 12 23 27 70 34 105 l12 64 -26 10 -26 11 32 7 c67 15 87 49 68
115 -21 69 -19 83 21 123 44 44 57 34 73 -58z m1271 48 c0 -42 -14 -66 -26
-47 -8 14 -13 60 -7 72 2 4 11 7 19 7 9 0 14 -11 14 -32z m-3820 -25 c0 -13
-4 -23 -10 -23 -5 0 -10 17 -10 38 0 27 3 33 10 22 5 -8 10 -25 10 -37z m3997
-50 c4 -11 -26 -12 -100 -4 -5 1 -5 6 -2 12 9 14 97 7 102 -8z m-1174 -25 c14
-21 2 -48 -22 -48 -24 0 -31 18 -18 48 11 24 25 25 40 0z m1197 -21 c10 -4 8
-6 -7 -6 -13 -1 -23 -7 -23 -16 0 -14 -29 -35 -50 -35 -15 0 15 56 37 69 10 5
20 6 23 2 3 -5 12 -11 20 -14z m-230 4 c0 -5 -13 -12 -30 -16 -18 -4 -30 -13
-30 -22 0 -13 10 -15 61 -10 72 6 77 -12 8 -29 -35 -9 -47 -9 -60 2 -8 8 -22
14 -29 14 -11 0 -11 3 -2 12 7 7 12 20 12 29 0 10 6 20 13 22 21 9 57 7 57 -2z
m-2043 -23 c-3 -8 -6 -5 -6 6 -1 11 2 17 5 13 3 -3 4 -12 1 -19z m-207 -9 c0
-5 -29 -9 -65 -9 -36 0 -65 4 -65 10 0 5 20 7 49 3 31 -3 51 -1 55 6 8 12 26
6 26 -10z m1419 -41 c0 -31 -1 -31 -10 -10 -5 13 -7 28 -3 33 10 16 14 9 13
-23z m-919 12 c-19 -13 -30 -13 -30 0 0 6 10 10 23 10 18 0 19 -2 7 -10z m-56
-19 c2 -3 -2 -14 -9 -24 -11 -15 -17 -16 -34 -7 -24 12 -26 21 -10 37 10 10
45 7 53 -6z m901 -41 c-3 -5 -15 -10 -26 -10 -10 0 -19 -7 -19 -15 0 -8 9 -15
21 -15 28 0 15 -16 -18 -23 -54 -10 -68 12 -30 50 22 21 84 33 72 13z m-635
-20 c0 -5 -5 -10 -11 -10 -5 0 -7 5 -4 10 3 6 8 10 11 10 2 0 4 -4 4 -10z
m-2360 -95 c0 -99 -32 -164 -82 -165 -27 0 -68 57 -68 97 0 65 66 143 121 143
l29 0 0 -75z m3610 59 c0 -2 -24 -4 -52 -3 -38 1 -46 3 -28 8 24 7 80 3 80 -5z
m-876 -20 c16 -16 22 -54 9 -54 -11 0 -42 57 -35 64 8 8 9 8 26 -10z m2430
-19 c8 -32 0 -46 -22 -38 -23 9 -30 22 -25 44 8 28 40 24 47 -6z m-4 -327 c0
-11 -8 -18 -19 -18 -10 0 -30 -9 -44 -20 -26 -21 -52 -26 -61 -12 -5 8 27 84
47 109 12 16 77 -34 77 -59z m-2440 -8 c0 -5 -7 -10 -16 -10 -8 0 -12 5 -9 10
3 6 10 10 16 10 5 0 9 -4 9 -10z m193 -130 c-3 -11 -9 -17 -14 -15 -10 7 -1
35 11 35 5 0 6 -9 3 -20z m2187 -10 c0 -5 -5 -10 -11 -10 -5 0 -7 5 -4 10 3 6
8 10 11 10 2 0 4 -4 4 -10z m-2168 -346 c-3 -65 -29 -144 -46 -144 -22 1 -46
28 -52 57 -10 50 57 160 91 149 6 -2 9 -29 7 -62z m134 -131 c-10 -10 -19 5
-10 18 6 11 8 11 12 0 2 -7 1 -15 -2 -18z"/>
<path d="M16950 22176 c0 -31 6 -34 13 -6 3 11 1 23 -4 26 -5 3 -9 -6 -9 -20z"/>
<path d="M17943 21609 c-18 -16 -33 -36 -33 -44 0 -19 15 -19 32 0 33 37 39
47 36 60 -2 10 -12 5 -35 -16z"/>
<path d="M17762 21508 c-17 -17 -15 -58 5 -65 18 -7 67 41 60 61 -5 16 -50 19
-65 4z"/>
<path d="M17850 21501 c0 -6 5 -13 10 -16 6 -3 10 1 10 9 0 9 -4 16 -10 16 -5
0 -10 -4 -10 -9z"/>
<path d="M17596 20981 c-15 -28 -15 -30 5 -36 24 -8 24 -7 33 21 4 13 1 26 -8
33 -12 10 -18 7 -30 -18z"/>
<path d="M17238 19193 c7 -3 16 -2 19 1 4 3 -2 6 -13 5 -11 0 -14 -3 -6 -6z"/>
<path d="M17533 18493 c9 -9 19 -14 23 -11 10 10 -6 28 -24 28 -15 0 -15 -1 1
-17z"/>
<path d="M12825 11620 c-3 -5 1 -10 10 -10 9 0 13 5 10 10 -3 6 -8 10 -10 10
-2 0 -7 -4 -10 -10z"/>
<path d="M13088 11473 c6 -2 18 -2 25 0 6 3 1 5 -13 5 -14 0 -19 -2 -12 -5z"/>
<path d="M13130 11430 c0 -16 93 -130 107 -130 6 0 19 -10 27 -22 17 -24 19
-21 16 32 -2 42 -48 90 -86 90 -13 0 -24 4 -24 10 0 5 -9 14 -20 20 -14 8 -20
8 -20 0z"/>
<path d="M13310 11153 c-29 -20 -87 -25 -112 -9 -14 8 -25 6 -50 -9 -18 -10
-47 -26 -65 -35 -45 -22 -73 -62 -82 -121 -10 -64 4 -136 28 -144 10 -3 26
-14 36 -25 19 -21 92 -30 80 -9 -4 5 1 19 10 29 13 14 16 28 11 54 -5 27 0 47
24 95 30 59 63 92 108 105 24 8 29 22 10 29 -7 3 -1 6 14 6 33 1 45 18 26 37
-12 12 -17 11 -38 -3z"/>
<path d="M13400 11125 c-11 -13 -8 -15 15 -15 23 0 26 2 15 15 -7 8 -14 15
-15 15 -1 0 -8 -7 -15 -15z"/>
<path d="M5935 8211 c-3 -5 -1 -12 5 -16 5 -3 10 1 10 9 0 18 -6 21 -15 7z"/>
<path d="M16487 6973 c-4 -3 -7 -16 -6 -27 0 -19 1 -19 10 3 10 24 8 36 -4 24z"/>
<path d="M16425 6908 c-4 -13 -22 -41 -39 -63 -17 -22 -54 -74 -81 -115 -28
-41 -52 -77 -55 -80 -12 -12 -70 -112 -70 -121 0 -5 7 -9 15 -9 8 0 15 3 15 8
0 4 20 30 45 57 25 28 45 53 45 57 0 4 6 13 13 20 6 8 20 27 29 43 55 98 89
153 107 174 24 27 23 44 -1 49 -10 2 -19 -6 -23 -20z"/>
<path d="M17358 5763 c7 -3 16 -2 19 1 4 3 -2 6 -13 5 -11 0 -14 -3 -6 -6z"/>
<path d="M17946 5305 c-4 -14 -11 -25 -16 -25 -6 0 -10 -7 -10 -15 0 -8 7 -15
15 -15 9 0 15 9 15 21 0 11 10 29 23 40 l22 18 -21 1 c-15 0 -24 -8 -28 -25z"/>
<path d="M15290 3566 c0 -10 9 -16 21 -16 24 0 21 23 -4 28 -10 2 -17 -3 -17
-12z"/>
<path d="M21148 27829 c-10 -10 -18 -24 -18 -30 0 -18 52 -1 80 27 l25 24 -35
-1 c-21 0 -42 -8 -52 -20z"/>
<path d="M8816 27441 c-4 -5 -2 -12 3 -15 5 -4 12 -2 15 3 4 5 2 12 -3 15 -5
4 -12 2 -15 -3z"/>
<path d="M8358 27328 c-24 -18 -39 -62 -48 -140 -7 -59 -58 -268 -80 -323 -4
-11 -12 -47 -18 -80 -5 -33 -17 -85 -26 -115 -22 -76 -46 -249 -46 -335 0 -87
-52 -444 -79 -541 -6 -22 -11 -60 -11 -86 0 -26 -5 -59 -10 -74 -18 -46 -32
-268 -36 -574 -2 -162 -7 -334 -10 -383 -3 -48 0 -127 6 -175 6 -48 15 -134
20 -192 5 -58 16 -141 24 -185 9 -44 25 -141 36 -215 11 -74 27 -171 35 -215
9 -44 19 -120 25 -170 12 -119 48 -350 62 -400 6 -22 35 -87 64 -145 28 -58
56 -121 62 -140 21 -73 31 -130 26 -145 -6 -15 22 -184 37 -220 11 -27 55
-219 74 -330 9 -49 21 -101 26 -114 17 -41 12 -242 -7 -292 -34 -93 -32 -103
32 -165 32 -30 72 -62 89 -70 16 -8 62 -34 100 -59 39 -24 90 -56 115 -70 25
-14 60 -35 79 -47 23 -15 54 -23 93 -24 33 -2 65 -8 73 -14 19 -16 117 -44
146 -41 15 1 43 -5 64 -13 21 -9 46 -16 58 -16 17 0 19 5 14 35 -5 29 -3 35
12 35 22 0 162 -48 178 -61 8 -7 12 -3 15 13 3 21 10 24 68 28 36 3 89 2 118
-3 35 -6 68 -5 97 2 60 15 147 14 225 -3 120 -26 255 -57 285 -66 17 -5 73
-14 125 -20 52 -6 102 -13 110 -15 20 -6 80 31 80 49 0 18 157 68 255 81 28 4
58 14 67 22 16 14 16 17 -5 34 l-22 18 32 1 c17 0 35 -4 38 -10 6 -10 75 -14
75 -5 0 3 -18 28 -40 56 -39 50 -54 82 -27 62 18 -15 86 -23 93 -12 3 5 -8 31
-24 57 -22 33 -29 55 -25 74 4 20 -3 40 -26 73 -17 25 -31 50 -31 54 0 5 -7
14 -15 21 -31 26 -17 36 45 32 69 -5 65 -16 51 123 -6 60 -19 105 -50 178 -27
62 -40 105 -36 117 6 20 7 20 37 -5 38 -32 88 -58 96 -50 6 5 -16 101 -54 235
-11 36 -18 78 -16 94 3 27 4 28 50 21 26 -3 57 -13 68 -20 39 -25 34 -3 -12
49 -25 28 -68 97 -95 153 -28 57 -55 105 -60 108 -18 12 -9 27 14 22 12 -4 29
-2 37 3 12 8 12 15 -3 58 -13 35 -16 63 -12 98 7 47 5 51 -35 94 -38 41 -90
130 -90 156 0 5 -12 22 -27 36 -29 26 -75 42 -177 61 -79 14 -51 25 64 26 94
1 100 4 117 43 11 25 10 28 -21 47 -54 34 -105 48 -277 76 -354 58 -626 111
-616 121 3 3 223 13 422 19 122 4 417 24 445 31 l25 6 -28 24 c-15 13 -36 24
-45 24 -9 1 -2 7 16 15 19 8 32 20 30 27 -4 12 -48 21 -281 59 -101 16 -83 26
70 39 161 14 226 26 240 47 16 20 17 59 3 68 -17 10 -367 44 -457 45 -91 0
-127 19 -41 22 29 0 58 2 63 3 6 2 46 4 90 5 l80 3 -65 8 c-36 5 -195 10 -355
13 -240 3 -295 6 -319 19 l-29 16 24 5 c53 11 201 25 329 31 74 3 198 12 275
20 77 8 188 19 246 24 111 11 159 25 159 47 0 8 -10 16 -22 18 -124 23 -219
29 -653 36 -490 9 -625 18 -625 46 0 17 53 54 78 54 11 0 49 9 84 20 34 11 97
23 138 26 l75 7 -40 12 -40 11 70 10 c39 5 120 9 180 9 61 1 145 2 189 3 l79
2 -6 37 c-4 20 -12 40 -19 45 -7 4 -62 8 -123 8 -104 1 -164 10 -435 65 -212
43 -191 38 -228 59 -20 11 -21 14 -7 20 9 3 31 6 48 6 18 0 79 9 137 20 116
21 277 40 355 40 28 1 90 9 139 18 l89 18 -49 19 c-34 13 -88 21 -179 25 -71
4 -143 12 -160 19 -52 21 -223 42 -432 51 -111 5 -221 15 -245 21 -24 6 -60
13 -80 16 -54 7 -47 23 10 23 95 0 150 11 155 31 8 28 -12 42 -94 69 -106 33
-144 52 -133 63 8 7 45 1 143 -25 54 -14 93 -17 150 -14 42 3 66 2 53 -2 -62
-19 -11 -27 197 -30 248 -3 335 10 156 24 -104 8 -107 9 -55 15 30 4 81 7 112
8 31 1 60 6 63 11 4 6 -11 10 -39 10 -40 0 -130 15 -381 65 -153 31 -300 68
-344 86 -24 11 -50 19 -57 19 -8 0 -31 9 -51 20 -21 11 -43 20 -50 20 -7 0
-13 5 -13 10 0 6 -11 10 -24 10 -14 0 -28 5 -31 10 -3 6 5 10 19 10 14 0 27
-4 30 -9 8 -13 51 -19 236 -37 263 -25 287 -26 270 -15 -8 6 -27 11 -42 11
-16 0 -28 5 -28 10 0 6 14 10 30 10 17 0 39 9 51 21 l22 22 -24 13 c-13 7 -33
13 -44 14 -11 0 -26 10 -34 22 l-13 21 102 -7 c59 -3 117 -13 136 -22 38 -18
67 -15 72 7 2 10 -9 18 -33 25 -47 12 -46 27 2 35 35 5 36 6 13 12 -14 4 -34
9 -45 11 -39 6 -98 38 -127 67 -16 16 -39 29 -51 29 -12 0 -34 6 -48 13 -14 8
-45 17 -69 21 -24 4 -55 13 -69 20 -14 8 -88 45 -164 82 -77 38 -155 77 -175
88 -81 40 -90 73 -17 63 34 -5 153 -57 267 -118 10 -5 28 -9 42 -9 13 0 29 -6
35 -14 20 -24 87 -30 127 -11 49 23 33 39 -35 32 -31 -3 -48 -3 -38 0 30 8 15
22 -58 56 -39 18 -88 44 -110 58 -22 14 -48 28 -57 32 -10 3 -18 11 -18 17 0
17 48 11 92 -11 49 -25 153 -59 181 -59 11 0 34 -4 51 -9 52 -15 217 -44 222
-38 5 5 -15 18 -71 46 -11 6 -39 15 -62 21 -23 6 -48 16 -55 23 -12 11 -68 38
-108 51 -8 2 8 5 36 5 29 1 65 -6 80 -14 16 -8 43 -15 60 -15 17 0 57 -9 90
-20 32 -11 81 -20 108 -20 43 0 68 5 136 28 9 3 1 9 -22 16 -20 6 -40 14 -44
19 -4 4 -17 7 -28 7 -12 0 -32 6 -46 13 -30 15 -87 32 -155 45 -45 9 -68 16
-140 42 -11 5 -42 16 -70 25 -132 46 -282 135 -355 210 -8 8 -25 25 -37 37
-13 12 -23 28 -23 35 0 25 45 12 130 -36 47 -27 123 -67 170 -90 47 -24 105
-53 130 -65 25 -13 63 -24 84 -24 25 -1 46 -9 58 -22 19 -20 68 -28 68 -11 0
22 -63 73 -147 120 -51 28 -97 51 -101 51 -5 0 -26 14 -47 30 -21 17 -44 30
-51 30 -7 0 -17 6 -21 13 -8 12 -23 23 -77 55 -42 24 -68 51 -61 62 11 18 69
10 111 -14 23 -13 57 -26 77 -30 20 -4 42 -15 49 -25 25 -35 137 -78 150 -58
12 19 10 23 -41 84 -82 96 -278 276 -349 320 -15 9 -37 26 -49 37 -26 25 -27
26 -123 98 -42 31 -82 63 -89 72 -7 9 -20 16 -27 16 -17 0 -74 53 -74 69 0 6
-4 11 -9 11 -6 0 -36 24 -68 53 -32 29 -85 74 -118 100 -33 26 -66 52 -74 59
-21 17 -103 22 -123 6z m612 -888 c0 -5 -2 -10 -4 -10 -3 0 -8 5 -11 10 -3 6
-1 10 4 10 6 0 11 -4 11 -10z m163 -437 c-7 -2 -19 -2 -25 0 -7 3 -2 5 12 5
14 0 19 -2 13 -5z m14 -829 c-3 -3 -12 -4 -19 -1 -8 3 -5 6 6 6 11 1 17 -2 13
-5z"/>
<path d="M9666 26765 c4 -8 10 -15 15 -15 5 0 9 7 9 15 0 8 -7 15 -15 15 -9 0
-12 -6 -9 -15z"/>
<path d="M19382 26201 c-10 -6 -10 -11 3 -21 14 -12 18 -11 26 1 17 28 1 40
-29 20z"/>
<path d="M19327 26129 c-23 -26 -18 -39 11 -28 13 5 22 17 22 29 0 26 -11 25
-33 -1z"/>
<path d="M19286 26074 c-4 -9 -4 -19 -1 -22 2 -3 7 3 11 12 4 9 4 19 1 22 -2
3 -7 -3 -11 -12z"/>
<path d="M19233 26025 c-3 -9 -3 -18 -1 -21 3 -3 8 4 11 16 6 23 -1 27 -10 5z"/>
<path d="M19150 25941 c0 -5 -9 -11 -20 -14 -18 -5 -30 -37 -12 -37 9 1 62 47
62 55 0 3 -7 5 -15 5 -8 0 -15 -4 -15 -9z"/>
<path d="M9863 25923 c9 -2 23 -2 30 0 6 3 -1 5 -18 5 -16 0 -22 -2 -12 -5z"/>
<path d="M19061 25886 c-9 -10 -9 -16 -1 -21 13 -8 42 14 34 26 -8 13 -20 11
-33 -5z"/>
<path d="M19003 25825 c-7 -8 -13 -17 -13 -20 0 -10 29 -5 36 6 10 17 -10 29
-23 14z"/>
<path d="M9548 25733 c18 -2 45 -2 60 0 15 2 0 4 -33 4 -33 0 -45 -2 -27 -4z"/>
<path d="M7611 24779 c-1 -15 -8 -40 -16 -55 -8 -16 -15 -54 -14 -84 0 -63 31
-154 42 -126 10 24 7 235 -3 266 l-8 25 -1 -26z"/>
<path d="M11693 23937 c-47 -14 -66 -27 -37 -27 29 0 44 -19 38 -49 -5 -23 0
-28 43 -45 114 -45 143 -59 143 -71 0 -8 4 -15 9 -17 5 -1 4 -11 -3 -21 -10
-13 -30 -18 -84 -20 -39 -2 -74 -6 -78 -10 -11 -10 38 -45 73 -52 22 -4 30
-10 27 -20 -4 -9 4 -19 23 -27 15 -7 44 -22 64 -34 64 -39 59 -104 -7 -104
-13 0 -35 -10 -49 -23 l-27 -22 21 -19 c12 -11 42 -33 68 -50 26 -17 47 -35
47 -41 -1 -5 -15 -16 -33 -24 -40 -19 -36 -31 15 -46 l39 -12 -39 -8 c-25 -5
-46 -4 -57 4 -11 6 -44 11 -74 11 -54 0 -71 -11 -37 -25 15 -6 14 -8 -6 -16
-25 -10 -21 -29 6 -29 9 0 30 -7 46 -15 15 -8 35 -15 42 -15 20 0 30 -30 13
-41 -8 -4 -37 -11 -66 -15 -29 -3 -53 -10 -53 -14 0 -4 27 -34 61 -66 68 -66
109 -124 109 -153 0 -20 -34 -79 -64 -113 -17 -19 -22 -58 -7 -58 4 0 20 -11
35 -25 15 -14 31 -25 35 -25 12 0 28 -46 35 -95 3 -22 8 -56 11 -75 6 -30 2
-40 -24 -70 -17 -19 -31 -41 -31 -48 0 -8 -9 -25 -20 -39 l-19 -25 27 -25 c15
-14 41 -36 57 -49 l30 -24 -65 5 c-36 2 -76 7 -90 11 -21 4 -16 -3 25 -40 28
-25 55 -46 61 -46 6 0 17 -7 24 -16 17 -20 74 -15 78 7 2 10 -6 19 -19 22 -22
6 -18 27 7 27 8 0 38 -11 66 -25 58 -28 79 -27 71 4 -7 27 -29 45 -38 31 -11
-17 -35 -11 -35 10 0 12 12 26 33 36 17 9 40 26 49 37 16 21 17 21 52 4 20 -9
36 -21 36 -27 0 -5 12 -10 27 -10 21 0 24 3 15 12 -7 7 -12 24 -12 39 0 16
-13 48 -30 72 -26 39 -39 77 -26 77 2 0 29 -12 61 -26 48 -22 59 -24 71 -13
11 12 9 23 -15 71 -22 44 -26 58 -15 62 11 4 11 14 -2 56 -12 41 -13 55 -3 66
9 12 9 20 -1 38 -7 13 -10 28 -7 33 3 5 -7 35 -23 67 -32 63 -31 80 6 73 14
-2 30 3 38 12 19 20 6 62 -40 132 -30 47 -54 101 -114 259 -18 47 -38 92 -45
100 -16 20 -44 110 -55 176 -5 28 -30 94 -55 145 -26 52 -53 114 -61 139 -19
63 -68 136 -106 160 -37 22 -98 25 -165 7z m397 -1757 c0 -5 -6 -10 -14 -10
-8 0 -18 5 -21 10 -3 6 3 10 14 10 12 0 21 -4 21 -10z"/>
<path d="M15580 23734 c0 -13 21 -44 30 -44 6 0 10 11 10 25 0 18 -5 25 -20
25 -11 0 -20 -3 -20 -6z"/>
<path d="M7643 22955 c0 -22 2 -30 4 -17 2 12 2 30 0 40 -3 9 -5 -1 -4 -23z"/>
<path d="M15367 22283 c-14 -13 -6 -50 13 -68 11 -10 20 -25 20 -33 0 -8 16
-30 36 -48 26 -25 45 -34 69 -34 19 0 37 5 40 10 4 6 11 8 16 5 12 -8 49 4 49
14 0 5 -13 14 -30 21 -16 7 -47 31 -69 55 -21 23 -59 52 -83 64 -49 23 -52 24
-61 14z"/>
<path d="M15930 22240 c0 -5 5 -10 10 -10 6 0 10 5 10 10 0 6 -4 10 -10 10 -5
0 -10 -4 -10 -10z"/>
<path d="M7882 21693 c-15 -27 -15 -134 -1 -182 16 -53 45 -89 60 -74 13 13 0
102 -30 213 -16 58 -19 62 -29 43z"/>
<path d="M7970 21182 c0 -89 28 -167 78 -221 37 -38 71 -61 91 -61 25 0 8 59
-37 130 -27 42 -66 107 -87 145 -20 39 -39 72 -41 74 -2 2 -4 -28 -4 -67z"/>
<path d="M14895 21001 c-5 -29 -12 -41 -28 -45 l-22 -5 25 -26 c23 -23 29 -24
58 -14 18 6 37 19 42 29 5 10 23 21 40 25 29 6 56 36 43 49 -10 10 -55 6 -96
-8 -26 -10 -39 -10 -44 -3 -4 6 -1 13 5 15 17 5 15 22 -2 22 -9 0 -17 -15 -21
-39z"/>
<path d="M14751 20880 c-40 -10 -69 -36 -55 -50 6 -6 18 -4 34 5 14 8 33 18
43 21 9 3 17 13 17 20 0 8 -1 14 -2 13 -2 -1 -18 -5 -37 -9z"/>
<path d="M14225 20853 c-25 -6 -55 -32 -55 -48 0 -12 94 -13 121 -1 32 14 -5
62 -41 55 -3 -1 -14 -4 -25 -6z"/>
<path d="M14603 20775 c-18 -19 -16 -25 6 -25 10 0 21 9 24 20 6 23 -12 26
-30 5z"/>
<path d="M14070 20755 c0 -16 16 -20 24 -6 3 5 -1 11 -9 15 -9 3 -15 0 -15 -9z"/>
<path d="M14262 20704 c-30 -26 -65 -48 -84 -51 -25 -4 -40 -16 -60 -47 l-27
-41 27 -9 c28 -10 61 -43 62 -62 0 -23 26 -21 55 2 20 16 43 24 69 24 25 0 43
6 51 17 12 16 17 15 68 -11 l55 -28 9 -61 c8 -61 9 -62 41 -65 l32 -3 -19 32
c-11 18 -18 36 -15 41 3 5 -4 23 -15 42 -12 18 -21 41 -21 50 0 9 -4 16 -8 16
-9 0 -27 33 -37 68 -5 18 -2 22 17 22 13 0 29 9 35 19 11 17 9 20 -17 26 -16
4 -32 11 -35 16 -4 5 -16 9 -28 9 -13 0 -31 6 -42 14 -44 30 -58 28 -113 -20z
m83 -9 c0 -30 -39 -27 -43 3 -3 20 0 23 20 20 15 -2 23 -10 23 -23z m92 -37
c-3 -8 -6 -5 -6 6 -1 11 2 17 5 13 3 -3 4 -12 1 -19z"/>
<path d="M14121 20704 c0 -11 3 -14 6 -6 3 7 2 16 -1 19 -3 4 -6 -2 -5 -13z"/>
<path d="M14330 20494 c0 -13 21 -44 30 -44 16 0 11 37 -6 44 -19 7 -24 8 -24
0z"/>
<path d="M14556 20481 c-6 -8 69 -92 97 -108 21 -12 67 -83 67 -104 0 -28 -48
-59 -91 -59 -31 0 -38 -4 -41 -22 -2 -18 -9 -22 -28 -20 -41 4 -68 23 -86 61
-22 47 -46 65 -57 45 -7 -13 -13 -11 -32 10 -24 26 -68 35 -79 17 -3 -5 -15
-7 -26 -4 -13 4 -26 -1 -34 -13 -12 -16 -11 -22 5 -43 30 -37 25 -67 -12 -75
-17 -3 -45 -6 -60 -6 -21 0 -32 -6 -38 -22 -11 -29 -40 -55 -66 -60 -38 -7
-26 -32 31 -67 34 -22 62 -48 74 -70 21 -41 87 -111 104 -111 6 0 -4 -10 -22
-22 -31 -19 -43 -20 -139 -15 -58 3 -129 2 -157 -4 -35 -7 -76 -6 -132 1 -75
11 -83 10 -116 -10 -27 -15 -46 -19 -70 -15 -26 5 -38 2 -52 -14 -14 -15 -31
-21 -65 -21 -29 0 -57 -7 -76 -20 -16 -11 -43 -20 -60 -20 -50 0 -101 -19
-132 -49 -26 -24 -41 -29 -104 -35 -41 -4 -108 -6 -149 -5 -41 1 -88 -1 -105
-4 -16 -4 -99 -11 -184 -17 -85 -6 -162 -15 -171 -20 -9 -5 -47 -14 -84 -20
-65 -10 -191 -54 -201 -70 -3 -4 37 -15 88 -25 111 -20 127 -24 127 -35 0 -4
-15 -11 -34 -14 -18 -4 -41 -15 -50 -25 -17 -18 -17 -20 4 -31 12 -6 63 -16
113 -22 108 -12 122 -17 122 -49 1 -27 6 -27 157 -14 l77 8 17 -42 c19 -49 44
-65 86 -56 17 4 81 8 142 8 l111 2 55 -40 c31 -22 74 -54 95 -72 99 -80 185
-138 265 -178 93 -48 248 -115 265 -115 5 -1 28 -9 50 -20 22 -11 50 -19 61
-20 12 0 27 -6 34 -14 6 -8 26 -16 43 -18 50 -5 47 -33 -6 -53 -33 -13 -64
-15 -128 -11 -95 5 -190 20 -216 34 -10 5 -40 13 -68 16 -27 4 -72 18 -100 30
-27 13 -66 29 -85 36 -19 8 -39 20 -45 26 -7 9 -103 44 -121 44 -1 0 4 -17 11
-37 18 -51 55 -80 112 -88 27 -4 73 -17 104 -31 31 -13 66 -24 78 -24 25 0 81
-27 81 -39 0 -4 30 -16 66 -26 55 -15 71 -16 87 -5 17 10 28 9 66 -8 47 -20
140 -44 244 -61 31 -6 65 -14 75 -19 30 -16 145 -14 185 3 20 8 58 15 84 15
169 -1 376 -8 423 -15 45 -6 58 -4 69 9 9 11 30 16 62 16 30 0 69 9 103 25 63
29 83 30 110 10 11 -8 37 -15 59 -15 l38 0 -6 -44 c-6 -39 -4 -46 15 -56 46
-24 63 -11 91 75 15 44 28 99 28 122 1 34 6 45 30 62 16 12 39 21 52 21 12 0
30 7 39 15 9 8 29 16 43 17 22 2 30 10 43 48 9 25 20 54 25 65 4 11 14 40 20
64 8 26 20 46 32 50 18 7 18 8 4 14 -24 9 -21 24 12 66 20 25 31 51 33 81 2
30 9 46 23 54 28 15 35 27 35 57 0 24 30 107 67 189 9 19 17 50 17 70 1 34 0
35 -41 38 -41 3 -43 5 -43 34 0 18 7 36 17 43 14 11 15 17 5 39 -13 28 -57 45
-75 27 -17 -17 -25 -14 -64 25 l-36 36 -38 -41 c-46 -50 -83 -55 -93 -15 -5
20 -10 24 -19 15 -16 -16 -48 -14 -69 6 -17 15 -21 15 -54 0 -44 -21 -88 -22
-109 -1 -19 19 -50 80 -58 114 -3 14 -16 30 -28 35 -15 6 -28 28 -39 62 -17
53 -59 117 -92 141 -10 7 -25 26 -33 43 -9 16 -32 37 -53 47 -20 9 -41 27 -47
39 -5 12 -21 25 -36 28 -20 5 -29 15 -38 44 -6 21 -11 49 -11 62 0 13 -10 40
-22 59 -12 19 -29 48 -37 65 -9 16 -25 32 -35 33 -17 4 -18 0 -13 -42 5 -31 3
-46 -5 -46 -19 0 -78 41 -78 54 0 30 -168 64 -184 37z m1333 -940 c12 -8 13
-14 3 -35 -13 -29 -37 -34 -46 -10 -6 16 9 54 22 54 4 0 13 -4 21 -9z m-1909
-192 c0 -5 -14 -24 -30 -43 -28 -32 -30 -39 -24 -85 3 -28 16 -64 28 -82 24
-35 83 -62 136 -62 44 -1 138 40 145 62 6 21 42 61 54 61 5 0 12 -15 15 -33 3
-19 17 -44 31 -57 14 -13 25 -32 25 -42 0 -27 45 -68 75 -68 16 0 25 -6 25
-15 0 -9 -9 -15 -25 -15 -14 0 -25 5 -25 10 0 24 -74 -6 -151 -61 -48 -34
-135 -38 -190 -10 -29 16 -50 20 -74 15 -27 -5 -35 -2 -44 15 -9 16 -21 21
-55 21 -36 0 -49 6 -84 38 -47 43 -53 62 -20 62 12 0 29 7 39 16 14 13 20 13
38 2 15 -9 23 -10 32 -1 8 8 -2 19 -35 43 l-45 33 4 90 c4 100 16 122 78 143
28 10 35 9 55 -9 12 -11 22 -24 22 -28z m1890 -58 c0 -27 -12 -33 -26 -13 -8
12 -9 21 -2 29 13 16 28 7 28 -16z"/>
<path d="M8330 20415 c0 -76 21 -125 54 -125 57 0 45 62 -26 148 l-28 33 0
-56z"/>
<path d="M15775 20325 c-28 -13 -58 -32 -66 -42 -22 -25 -29 -71 -13 -87 7 -7
14 -28 16 -46 3 -30 6 -33 36 -34 19 -1 38 5 44 12 14 16 43 15 58 -3 7 -8 19
-15 26 -15 8 0 14 -1 15 -2 0 -2 6 -39 12 -83 12 -79 13 -80 41 -80 25 0 37
11 77 65 26 36 48 72 48 81 1 9 15 33 31 54 36 46 37 65 6 102 -20 23 -26 25
-40 14 -12 -10 -22 -11 -43 -2 -16 6 -41 13 -58 15 -16 3 -41 19 -55 35 -35
41 -74 45 -135 16z m-20 -114 c3 -5 1 -12 -5 -16 -5 -3 -10 1 -10 9 0 18 6 21
15 7z"/>
<path d="M15635 20139 c-8 -12 14 -31 30 -26 6 2 10 10 10 18 0 17 -31 24 -40
8z"/>
<path d="M15630 19825 c0 -17 5 -25 13 -22 6 2 12 12 12 22 0 10 -6 20 -12 23
-8 2 -13 -6 -13 -23z"/>
<path d="M8846 19512 c-11 -10 7 -147 20 -163 8 -8 14 -23 14 -32 0 -36 82
-62 120 -37 13 8 10 13 -13 33 -20 16 -28 30 -26 47 2 14 -3 36 -11 50 -17 32
-97 110 -104 102z"/>
<path d="M9530 18610 c0 -11 4 -20 9 -20 11 0 22 26 14 34 -12 12 -23 5 -23
-14z"/>
<path d="M8820 17450 c0 -11 5 -20 10 -20 6 0 10 9 10 20 0 11 -4 20 -10 20
-5 0 -10 -9 -10 -20z"/>
<path d="M6608 17375 c-33 -31 -64 -44 -140 -60 -26 -5 -28 -9 -28 -59 0 -68
-16 -85 -64 -68 -33 12 -66 8 -66 -9 0 -5 -5 -9 -11 -9 -7 0 -9 10 -5 25 5 20
3 25 -11 25 -35 0 -41 -15 -44 -101 -3 -68 -8 -92 -23 -108 -22 -25 -77 -28
-125 -8 -24 10 -45 11 -93 2 -78 -13 -124 -40 -138 -79 -6 -17 -24 -43 -41
-58 -24 -22 -28 -32 -23 -55 4 -15 10 -32 14 -38 4 -5 11 -33 15 -62 6 -50 6
-52 -23 -67 -27 -14 -75 -23 -128 -25 -16 -1 -21 -7 -21 -31 0 -41 -27 -68
-78 -76 -31 -4 -46 -12 -56 -31 -15 -27 -47 -47 -96 -58 -39 -8 -41 -24 -12
-65 12 -16 19 -35 16 -44 -6 -16 -77 -56 -99 -56 -7 0 -24 -9 -38 -20 -25 -19
-25 -19 -7 -50 27 -46 16 -76 -38 -101 -25 -12 -45 -25 -46 -30 -3 -32 -1 -81
6 -122 6 -39 4 -51 -10 -67 -10 -11 -22 -20 -27 -20 -5 0 -24 -11 -42 -25 -18
-14 -38 -25 -44 -25 -17 0 -52 -32 -52 -47 0 -21 37 -52 48 -41 12 12 47 -85
38 -107 -9 -24 10 -26 38 -4 22 17 24 24 15 35 -10 12 -8 17 7 28 18 14 18 15
-6 34 -22 18 -23 22 -11 50 7 17 10 40 6 51 -5 18 0 20 65 27 l70 7 0 43 c0
40 2 43 36 54 26 9 40 22 49 45 8 17 26 40 40 49 25 17 26 21 20 75 -6 55 -5
59 21 80 25 20 38 22 116 19 49 -2 88 0 88 4 0 12 -114 118 -132 124 -35 11
-20 41 26 54 23 6 52 11 62 10 34 -4 46 0 41 13 -2 6 7 24 21 40 25 26 25 27
7 41 -19 13 -18 16 22 55 47 48 79 53 158 28 28 -8 66 -19 85 -22 19 -4 66
-16 103 -26 37 -11 83 -19 102 -17 l34 3 -16 32 c-8 18 -23 35 -33 38 -10 3
-23 19 -30 36 -8 18 -26 35 -44 43 -18 7 -40 25 -49 39 -9 15 -32 34 -50 43
l-32 17 26 9 c20 7 29 18 34 44 8 47 0 68 -41 99 -43 33 -36 46 19 39 41 -5
167 -39 197 -53 8 -4 53 -18 100 -30 47 -12 96 -26 110 -30 45 -13 63 -3 56
31 -5 27 -70 118 -85 118 -26 1 -76 106 -64 136 13 34 105 7 176 -52 16 -13
34 -24 41 -24 7 0 27 -11 46 -25 48 -35 85 -33 99 5 10 30 0 82 -20 105 -29
31 13 75 72 75 21 0 44 3 53 6 18 7 21 40 6 79 -12 30 -98 125 -114 125 -6 0
-27 -16 -48 -35z m-995 -962 c-7 -2 -19 -2 -25 0 -7 3 -2 5 12 5 14 0 19 -2
13 -5z m-513 -659 c0 -14 -3 -14 -15 -4 -8 7 -15 14 -15 16 0 2 7 4 15 4 8 0
15 -7 15 -16z"/>
<path d="M7715 17120 c-7 -33 7 -60 32 -60 18 0 11 40 -12 73 -12 18 -13 17
-20 -13z"/>
<path d="M7780 17000 c0 -5 9 -10 21 -10 11 0 17 5 14 10 -3 6 -13 10 -21 10
-8 0 -14 -4 -14 -10z"/>
<path d="M4993 15554 c-15 -7 -17 -44 -3 -44 6 0 10 -9 10 -19 0 -28 11 -52
21 -45 5 3 9 -3 9 -12 0 -16 1 -16 14 2 13 17 13 21 -5 34 -13 10 -18 22 -13
33 6 17 12 19 63 21 36 2 39 26 3 26 -16 0 -42 2 -58 5 -16 2 -35 2 -41 -1z"/>
<path d="M5036 15374 c-13 -33 -6 -44 24 -44 32 0 36 9 20 41 -13 23 -36 25
-44 3z"/>
<path d="M4957 14965 c4 -27 0 -43 -18 -70 -13 -19 -30 -35 -37 -35 -7 0 -11
-4 -7 -10 3 -5 12 -7 19 -4 8 3 33 -4 57 -15 49 -24 70 -26 87 -9 9 9 12 8 12
-5 0 -16 9 -20 28 -15 8 3 4 30 -6 38 -4 3 -18 25 -31 50 -37 70 -70 110 -91
110 -16 0 -18 -5 -13 -35z"/>
<path d="M5044 14553 c-11 -35 -21 -48 -57 -72 -31 -20 -37 -30 -37 -60 0 -24
8 -43 26 -62 15 -16 27 -41 29 -63 5 -48 11 -56 46 -56 37 0 38 19 0 62 -18
21 -31 50 -35 79 -6 43 -5 49 20 68 15 12 35 19 45 16 29 -9 32 13 9 60 -23
48 -37 56 -46 28z"/>
<path d="M9730 12592 l-24 -19 30 -62 c16 -33 34 -61 40 -61 35 0 34 123 -2
147 -19 12 -24 11 -44 -5z"/>
<path d="M9677 11184 c-12 -13 -7 -47 16 -113 38 -111 81 -108 70 4 -7 71 -17
95 -41 95 -10 0 -23 5 -28 10 -6 6 -13 7 -17 4z"/>
<path d="M9445 8951 c-3 -5 -1 -12 5 -16 5 -3 10 1 10 9 0 18 -6 21 -15 7z"/>
<path d="M9478 8895 c2 -19 9 -35 14 -35 6 0 8 10 4 23 -3 12 -6 28 -6 35 0 6
-4 12 -8 12 -4 0 -6 -16 -4 -35z"/>
<path d="M6416 8675 c-23 -25 -25 -58 -5 -71 5 -3 9 -31 9 -63 0 -57 1 -59 34
-75 33 -16 34 -16 70 18 23 22 36 44 36 60 0 19 7 27 25 32 14 3 25 12 25 19
0 19 -49 55 -82 62 -15 3 -35 14 -44 24 -23 26 -40 24 -68 -6z m87 -116 c-8
-8 -16 -8 -30 0 -16 9 -14 10 12 11 21 0 26 -3 18 -11z"/>
<path d="M5586 8615 c-17 -17 -21 -35 -8 -35 9 0 35 40 29 46 -3 3 -12 -2 -21
-11z"/>
<path d="M5520 8580 c0 -15 5 -20 18 -18 9 2 17 10 17 18 0 8 -8 16 -17 18
-13 2 -18 -3 -18 -18z"/>
<path d="M5268 8493 c-10 -2 -18 -11 -18 -19 0 -12 4 -12 20 -4 11 6 20 15 20
20 0 6 -1 9 -2 9 -2 -1 -11 -3 -20 -6z"/>
<path d="M9620 8402 c0 -15 24 -32 47 -32 16 0 23 6 23 20 0 16 -7 20 -35 20
-19 0 -35 -4 -35 -8z"/>
<path d="M4860 8380 c0 -5 5 -10 10 -10 6 0 10 5 10 10 0 6 -4 10 -10 10 -5 0
-10 -4 -10 -10z"/>
<path d="M4805 8350 c-4 -6 5 -10 19 -10 14 0 26 5 26 10 0 6 -9 10 -19 10
-11 0 -23 -4 -26 -10z"/>
<path d="M9347 8333 c-4 -3 -7 -10 -7 -14 0 -13 77 -49 105 -49 21 0 25 5 25
29 0 24 -5 29 -31 35 -41 8 -84 8 -92 -1z"/>
<path d="M4378 8144 c-69 -54 -83 -88 -47 -115 13 -10 29 -19 34 -18 18 0 75
85 75 113 0 17 9 35 23 47 l22 18 -25 0 c-14 0 -50 -20 -82 -45z"/>
<path d="M4685 7959 c-22 -5 -62 -13 -90 -17 -63 -10 -91 -26 -109 -60 -8 -15
-33 -43 -56 -62 -23 -19 -56 -48 -73 -64 -69 -62 -165 -134 -214 -161 -39 -21
-54 -35 -58 -56 -9 -41 -157 -182 -247 -238 -41 -25 -108 -97 -108 -117 0 -23
16 -24 78 -4 89 26 148 64 220 139 144 152 180 183 276 240 56 33 130 87 165
119 35 33 81 70 103 83 49 30 154 106 187 136 13 13 28 23 32 23 19 0 8 29
-13 35 -42 12 -53 13 -93 4z"/>
<path d="M4848 7963 c7 -3 16 -2 19 1 4 3 -2 6 -13 5 -11 0 -14 -3 -6 -6z"/>
<path d="M4990 7913 c-15 -6 -142 -64 -195 -89 -16 -8 -43 -26 -60 -40 l-30
-26 130 6 c72 3 169 13 218 21 57 10 93 12 104 6 22 -12 54 27 63 80 9 46 0
49 -42 14 -32 -27 -48 -25 -48 4 0 13 -10 20 -37 25 -45 7 -82 7 -103 -1z"/>
<path d="M5287 7905 c-10 -9 -17 -30 -17 -46 0 -16 -6 -39 -12 -50 -11 -18
-10 -23 11 -40 32 -26 40 -24 53 12 14 41 43 36 44 -8 0 -38 0 -38 37 -47 28
-7 29 -6 21 26 -11 50 -7 71 17 89 40 30 17 45 -112 75 -17 4 -31 0 -42 -11z"/>
<path d="M4255 7880 c-4 -6 -14 -10 -23 -9 -10 2 -33 -4 -53 -13 -20 -9 -45
-19 -56 -22 -31 -10 -36 -35 -11 -55 26 -22 19 -47 -17 -53 -18 -4 -29 0 -35
13 -14 26 -60 8 -84 -32 l-18 -31 22 7 c35 11 43 -14 14 -48 -14 -17 -28 -43
-31 -58 -3 -16 -12 -34 -19 -40 -18 -15 -18 -35 0 -42 7 -3 31 1 52 8 30 10
38 18 36 34 -2 15 4 22 22 27 16 4 26 13 26 24 0 10 8 21 18 25 18 6 62 68 62
88 0 7 17 28 36 47 20 19 42 47 50 62 7 15 23 30 34 33 13 4 20 14 18 23 -4
20 -33 28 -43 12z"/>
<path d="M5502 7848 c-7 -7 -12 -20 -12 -30 0 -10 -4 -18 -10 -18 -5 0 -10
-19 -10 -43 0 -40 3 -44 36 -59 l36 -17 -5 28 c-3 15 0 45 8 67 22 60 19 84
-8 84 -13 0 -28 -5 -35 -12z"/>
<path d="M4470 7610 c-13 -8 -13 -10 0 -14 40 -14 70 -10 70 9 0 17 -46 21
-70 5z"/>
<path d="M5462 7565 c-17 -37 -15 -55 6 -55 38 0 60 61 26 74 -21 8 -19 9 -32
-19z"/>
<path d="M3839 7557 c-8 -7 -18 -20 -22 -29 -3 -10 -16 -18 -27 -18 -11 0 -23
-7 -26 -15 -4 -8 -22 -22 -41 -31 -36 -18 -76 -56 -96 -92 -7 -11 -28 -45 -48
-74 -60 -88 -116 -179 -159 -258 -61 -113 -140 -280 -140 -296 0 -25 26 -15
41 15 19 40 88 129 178 232 81 92 141 171 141 184 0 4 16 30 35 56 19 27 35
54 35 59 0 6 7 10 15 10 30 0 73 29 79 54 3 13 17 38 32 55 20 24 24 37 19 65
-4 20 -2 43 5 56 14 27 1 43 -21 27z"/>
<path d="M4505 7550 c-3 -5 -1 -10 4 -10 6 0 11 5 11 10 0 6 -2 10 -4 10 -3 0
-8 -4 -11 -10z"/>
<path d="M3920 7470 c-13 -8 -12 -10 3 -10 9 0 17 5 17 10 0 12 -1 12 -20 0z"/>
<path d="M3240 6691 c0 -5 -16 -30 -35 -55 -19 -25 -38 -58 -41 -73 -4 -15
-13 -34 -20 -41 -7 -7 -11 -19 -7 -28 4 -12 10 -8 23 14 10 17 22 31 27 33 13
6 68 81 81 112 7 16 10 33 7 38 -8 12 -35 12 -35 0z"/>
<path d="M3082 6030 c0 -14 2 -19 5 -12 2 6 2 18 0 25 -3 6 -5 1 -5 -13z"/>
<path d="M2231 4054 c0 -11 3 -14 6 -6 3 7 2 16 -1 19 -3 4 -6 -2 -5 -13z"/>
</g>
</svg>
